999
"DXF R12 Output" (www.mydxf.blogspot.com)
 0 
SECTION
 2 
HEADER
 9 
$ACADVER
 1 
AC1009
 9 
$EXTMIN
 10 
 0 
 20 
 0 
 9 
$EXTMAX
 10 
 8.5 
 20 
 11 
 0 
ENDSEC
 0 
SECTION
 2 
ENTITIES
0
LINE
8
Layer 1
10
17.482800
20
80.062000
11
17.564193
21
80.867929
0
LINE
8
Layer 1
10
17.564193
20
80.867929
11
17.797591
21
81.618798
0
LINE
8
Layer 1
10
17.797591
20
81.618798
11
18.655721
21
82.890760
0
LINE
8
Layer 1
10
18.655721
20
82.890760
11
19.927823
21
83.748684
0
LINE
8
Layer 1
10
19.927823
20
83.748684
11
20.678686
21
83.982007
0
LINE
8
Layer 1
10
20.678686
20
83.982007
11
21.484530
21
84.063370
0
LINE
8
Layer 1
10
21.484530
20
84.063370
11
22.290358
21
83.982007
0
LINE
8
Layer 1
10
22.290358
20
83.982007
11
23.041181
21
83.748684
0
LINE
8
Layer 1
10
23.041181
20
83.748684
11
24.313159
21
82.890760
0
LINE
8
Layer 1
10
24.313159
20
82.890760
11
25.171165
21
81.618798
0
LINE
8
Layer 1
10
25.171165
20
81.618798
11
25.404522
21
80.867929
0
LINE
8
Layer 1
10
25.404522
20
80.867929
11
25.485900
21
80.062000
0
LINE
8
Layer 1
10
25.485900
20
80.062000
11
25.404522
21
79.256156
0
LINE
8
Layer 1
10
25.404522
20
79.256156
11
25.171165
21
78.505293
0
LINE
8
Layer 1
10
25.171165
20
78.505293
11
24.313159
21
77.233191
0
LINE
8
Layer 1
10
24.313159
20
77.233191
11
23.041181
21
76.375061
0
LINE
8
Layer 1
10
23.041181
20
76.375061
11
22.290358
21
76.141663
0
LINE
8
Layer 1
10
22.290358
20
76.141663
11
21.484530
21
76.060270
0
LINE
8
Layer 1
10
21.484530
20
76.060270
11
20.678692
21
76.141674
0
LINE
8
Layer 1
10
20.678692
20
76.141674
11
19.927831
21
76.375081
0
LINE
8
Layer 1
10
19.927831
20
76.375081
11
18.655729
21
77.233221
0
LINE
8
Layer 1
10
18.655729
20
77.233221
11
17.797594
21
78.505318
0
LINE
8
Layer 1
10
17.797594
20
78.505318
11
17.564194
21
79.256172
0
LINE
8
Layer 1
10
17.564194
20
79.256172
11
17.482800
21
80.062000
0
LINE
8
Layer 1
10
17.482800
20
80.062000
11
17.482800
21
80.062000
0
LINE
8
Layer 1
10
21.482900
20
80.563300
11
21.482900
21
79.563100
0
LINE
8
Layer 1
10
20.971700
20
80.061000
11
21.971900
21
80.061000
0
LINE
8
Layer 1
10
8.826970
20
37.787200
11
8.908363
21
38.593128
0
LINE
8
Layer 1
10
8.908363
20
38.593128
11
9.141760
21
39.343997
0
LINE
8
Layer 1
10
9.141760
20
39.343997
11
9.999885
21
40.615955
0
LINE
8
Layer 1
10
9.999885
20
40.615955
11
11.271980
21
41.473876
0
LINE
8
Layer 1
10
11.271980
20
41.473876
11
12.022840
21
41.707197
0
LINE
8
Layer 1
10
12.022840
20
41.707197
11
12.828680
21
41.788560
0
LINE
8
Layer 1
10
12.828680
20
41.788560
11
13.634505
21
41.707197
0
LINE
8
Layer 1
10
13.634505
20
41.707197
11
14.385325
21
41.473874
0
LINE
8
Layer 1
10
14.385325
20
41.473874
11
15.657300
21
40.615951
0
LINE
8
Layer 1
10
15.657300
20
40.615951
11
16.515305
21
39.343993
0
LINE
8
Layer 1
10
16.515305
20
39.343993
11
16.748662
21
38.593125
0
LINE
8
Layer 1
10
16.748662
20
38.593125
11
16.830040
21
37.787200
0
LINE
8
Layer 1
10
16.830040
20
37.787200
11
16.748662
21
36.981360
0
LINE
8
Layer 1
10
16.748662
20
36.981360
11
16.515305
21
36.230500
0
LINE
8
Layer 1
10
16.515305
20
36.230500
11
15.657300
21
34.958405
0
LINE
8
Layer 1
10
15.657300
20
34.958405
11
14.385325
21
34.100280
0
LINE
8
Layer 1
10
14.385325
20
34.100280
11
13.634505
21
33.866883
0
LINE
8
Layer 1
10
13.634505
20
33.866883
11
12.828680
21
33.785490
0
LINE
8
Layer 1
10
12.828680
20
33.785490
11
12.022828
21
33.866887
0
LINE
8
Layer 1
10
12.022828
20
33.866887
11
11.271963
21
34.100290
0
LINE
8
Layer 1
10
11.271963
20
34.100290
11
9.999870
21
34.958424
0
LINE
8
Layer 1
10
9.999870
20
34.958424
11
9.141754
21
36.230519
0
LINE
8
Layer 1
10
9.141754
20
36.230519
11
8.908361
21
36.981372
0
LINE
8
Layer 1
10
8.908361
20
36.981372
11
8.826970
21
37.787200
0
LINE
8
Layer 1
10
8.826970
20
37.787200
11
8.826970
21
37.787200
0
LINE
8
Layer 1
10
12.827100
20
38.290400
11
12.827100
21
37.290200
0
LINE
8
Layer 1
10
12.316000
20
37.788000
11
13.316200
21
37.788000
0
LINE
8
Layer 1
10
26.608600
20
37.787200
11
26.689993
21
38.593128
0
LINE
8
Layer 1
10
26.689993
20
38.593128
11
26.923390
21
39.343997
0
LINE
8
Layer 1
10
26.923390
20
39.343997
11
27.781515
21
40.615955
0
LINE
8
Layer 1
10
27.781515
20
40.615955
11
29.053610
21
41.473876
0
LINE
8
Layer 1
10
29.053610
20
41.473876
11
29.804470
21
41.707197
0
LINE
8
Layer 1
10
29.804470
20
41.707197
11
30.610310
21
41.788560
0
LINE
8
Layer 1
10
30.610310
20
41.788560
11
31.416135
21
41.707197
0
LINE
8
Layer 1
10
31.416135
20
41.707197
11
32.166955
21
41.473874
0
LINE
8
Layer 1
10
32.166955
20
41.473874
11
33.438930
21
40.615951
0
LINE
8
Layer 1
10
33.438930
20
40.615951
11
34.296935
21
39.343993
0
LINE
8
Layer 1
10
34.296935
20
39.343993
11
34.530293
21
38.593125
0
LINE
8
Layer 1
10
34.530293
20
38.593125
11
34.611670
21
37.787200
0
LINE
8
Layer 1
10
34.611670
20
37.787200
11
34.530293
21
36.981360
0
LINE
8
Layer 1
10
34.530293
20
36.981360
11
34.296935
21
36.230500
0
LINE
8
Layer 1
10
34.296935
20
36.230500
11
33.438930
21
34.958405
0
LINE
8
Layer 1
10
33.438930
20
34.958405
11
32.166955
21
34.100280
0
LINE
8
Layer 1
10
32.166955
20
34.100280
11
31.416135
21
33.866883
0
LINE
8
Layer 1
10
31.416135
20
33.866883
11
30.610310
21
33.785490
0
LINE
8
Layer 1
10
30.610310
20
33.785490
11
29.804479
21
33.866887
0
LINE
8
Layer 1
10
29.804479
20
33.866887
11
29.053623
21
34.100290
0
LINE
8
Layer 1
10
29.053623
20
34.100290
11
27.781526
21
34.958424
0
LINE
8
Layer 1
10
27.781526
20
34.958424
11
26.923394
21
36.230519
0
LINE
8
Layer 1
10
26.923394
20
36.230519
11
26.689994
21
36.981372
0
LINE
8
Layer 1
10
26.689994
20
36.981372
11
26.608600
21
37.787200
0
LINE
8
Layer 1
10
26.608600
20
37.787200
11
26.608600
21
37.787200
0
LINE
8
Layer 1
10
30.608700
20
38.290400
11
30.608700
21
37.290200
0
LINE
8
Layer 1
10
30.097600
20
37.788000
11
31.097800
21
37.788000
0
LINE
8
Layer 1
10
8.817510
20
108.580000
11
8.898888
21
109.385928
0
LINE
8
Layer 1
10
8.898888
20
109.385928
11
9.132245
21
110.136797
0
LINE
8
Layer 1
10
9.132245
20
110.136797
11
9.990250
21
111.408755
0
LINE
8
Layer 1
10
9.990250
20
111.408755
11
11.262225
21
112.266676
0
LINE
8
Layer 1
10
11.262225
20
112.266676
11
12.013045
21
112.499997
0
LINE
8
Layer 1
10
12.013045
20
112.499997
11
12.818870
21
112.581360
0
LINE
8
Layer 1
10
12.818870
20
112.581360
11
13.624813
21
112.499997
0
LINE
8
Layer 1
10
13.624813
20
112.499997
11
14.375722
21
112.266674
0
LINE
8
Layer 1
10
14.375722
20
112.266674
11
15.647800
21
111.408751
0
LINE
8
Layer 1
10
15.647800
20
111.408751
11
16.505841
21
110.136793
0
LINE
8
Layer 1
10
16.505841
20
110.136793
11
16.739202
21
109.385925
0
LINE
8
Layer 1
10
16.739202
20
109.385925
11
16.820580
21
108.580000
0
LINE
8
Layer 1
10
16.820580
20
108.580000
11
16.739202
21
107.774160
0
LINE
8
Layer 1
10
16.739202
20
107.774160
11
16.505840
21
107.023300
0
LINE
8
Layer 1
10
16.505840
20
107.023300
11
15.647796
21
105.751205
0
LINE
8
Layer 1
10
15.647796
20
105.751205
11
14.375717
21
104.893080
0
LINE
8
Layer 1
10
14.375717
20
104.893080
11
13.624811
21
104.659683
0
LINE
8
Layer 1
10
13.624811
20
104.659683
11
12.818870
21
104.578290
0
LINE
8
Layer 1
10
12.818870
20
104.578290
11
12.013036
21
104.659593
0
LINE
8
Layer 1
10
12.013036
20
104.659593
11
11.262212
21
104.892935
0
LINE
8
Layer 1
10
11.262212
20
104.892935
11
9.990239
21
105.751036
0
LINE
8
Layer 1
10
9.990239
20
105.751036
11
9.132241
21
107.023192
0
LINE
8
Layer 1
10
9.132241
20
107.023192
11
8.898886
21
107.774102
0
LINE
8
Layer 1
10
8.898886
20
107.774102
11
8.817510
21
108.580000
0
LINE
8
Layer 1
10
8.817510
20
108.580000
11
8.817510
21
108.580000
0
LINE
8
Layer 1
10
12.817500
20
109.083000
11
12.817500
21
108.082000
0
LINE
8
Layer 1
10
12.306300
20
108.581000
11
13.306800
21
108.581000
0
LINE
8
Layer 1
10
33.926600
20
111.748000
11
33.685691
21
110.534654
0
LINE
8
Layer 1
10
33.685691
20
110.534654
11
33.028694
21
109.543775
0
LINE
8
Layer 1
10
33.028694
20
109.543775
11
32.054205
21
108.875681
0
LINE
8
Layer 1
10
32.054205
20
108.875681
11
30.860820
21
108.630690
0
LINE
8
Layer 1
10
30.860820
20
108.630690
11
29.667583
21
108.875680
0
LINE
8
Layer 1
10
29.667583
20
108.875680
11
28.693078
21
109.543771
0
LINE
8
Layer 1
10
28.693078
20
109.543771
11
28.035998
21
110.534650
0
LINE
8
Layer 1
10
28.035998
20
110.534650
11
27.795040
21
111.748000
0
LINE
8
Layer 1
10
27.795040
20
111.748000
11
28.035998
21
112.961553
0
LINE
8
Layer 1
10
28.035998
20
112.961553
11
28.693078
21
113.952535
0
LINE
8
Layer 1
10
28.693078
20
113.952535
11
29.667583
21
114.620665
0
LINE
8
Layer 1
10
29.667583
20
114.620665
11
30.860820
21
114.865660
0
LINE
8
Layer 1
10
30.860820
20
114.865660
11
32.054201
21
114.620825
0
LINE
8
Layer 1
10
32.054201
20
114.620825
11
33.028690
21
113.952708
0
LINE
8
Layer 1
10
33.028690
20
113.952708
11
33.685689
21
112.961651
0
LINE
8
Layer 1
10
33.685689
20
112.961651
11
33.926600
21
111.748000
0
LINE
8
Layer 1
10
33.926600
20
111.748000
11
33.926600
21
111.748000
0
LINE
8
Layer 1
10
30.862200
20
112.248000
11
30.862200
21
111.248000
0
LINE
8
Layer 1
10
30.350900
20
111.746000
11
31.351400
21
111.746000
0
LINE
8
Layer 1
10
9.671890
20
15.714000
11
9.430981
21
14.500502
0
LINE
8
Layer 1
10
9.430981
20
14.500502
11
8.773984
21
13.509640
0
LINE
8
Layer 1
10
8.773984
20
13.509640
11
7.799495
21
12.841630
0
LINE
8
Layer 1
10
7.799495
20
12.841630
11
6.606110
21
12.596690
0
LINE
8
Layer 1
10
6.606110
20
12.596690
11
5.412873
21
12.841630
0
LINE
8
Layer 1
10
5.412873
20
12.841630
11
4.438367
21
13.509640
0
LINE
8
Layer 1
10
4.438367
20
13.509640
11
3.781288
21
14.500502
0
LINE
8
Layer 1
10
3.781288
20
14.500502
11
3.540330
21
15.714000
0
LINE
8
Layer 1
10
3.540330
20
15.714000
11
3.781288
21
16.927346
0
LINE
8
Layer 1
10
3.781288
20
16.927346
11
4.438367
21
17.918225
0
LINE
8
Layer 1
10
4.438367
20
17.918225
11
5.412873
21
18.586319
0
LINE
8
Layer 1
10
5.412873
20
18.586319
11
6.606110
21
18.831310
0
LINE
8
Layer 1
10
6.606110
20
18.831310
11
7.799495
21
18.586312
0
LINE
8
Layer 1
10
7.799495
20
18.586312
11
8.773984
21
17.918214
0
LINE
8
Layer 1
10
8.773984
20
17.918214
11
9.430981
21
16.927336
0
LINE
8
Layer 1
10
9.430981
20
16.927336
11
9.671890
21
15.714000
0
LINE
8
Layer 1
10
9.671890
20
15.714000
11
9.671890
21
15.714000
0
LINE
8
Layer 1
10
6.607480
20
16.214000
11
6.607480
21
15.213500
0
LINE
8
Layer 1
10
6.096170
20
15.711000
11
7.096690
21
15.711000
0
LINE
8
Layer 1
10
19.457600
20
15.714000
11
19.216691
21
14.500502
0
LINE
8
Layer 1
10
19.216691
20
14.500502
11
18.559694
21
13.509640
0
LINE
8
Layer 1
10
18.559694
20
13.509640
11
17.585205
21
12.841630
0
LINE
8
Layer 1
10
17.585205
20
12.841630
11
16.391820
21
12.596690
0
LINE
8
Layer 1
10
16.391820
20
12.596690
11
15.198583
21
12.841630
0
LINE
8
Layer 1
10
15.198583
20
12.841630
11
14.224077
21
13.509640
0
LINE
8
Layer 1
10
14.224077
20
13.509640
11
13.566998
21
14.500502
0
LINE
8
Layer 1
10
13.566998
20
14.500502
11
13.326040
21
15.714000
0
LINE
8
Layer 1
10
13.326040
20
15.714000
11
13.566998
21
16.927346
0
LINE
8
Layer 1
10
13.566998
20
16.927346
11
14.224077
21
17.918225
0
LINE
8
Layer 1
10
14.224077
20
17.918225
11
15.198583
21
18.586319
0
LINE
8
Layer 1
10
15.198583
20
18.586319
11
16.391820
21
18.831310
0
LINE
8
Layer 1
10
16.391820
20
18.831310
11
17.585201
21
18.586312
0
LINE
8
Layer 1
10
17.585201
20
18.586312
11
18.559690
21
17.918214
0
LINE
8
Layer 1
10
18.559690
20
17.918214
11
19.216689
21
16.927336
0
LINE
8
Layer 1
10
19.216689
20
16.927336
11
19.457600
21
15.714000
0
LINE
8
Layer 1
10
19.457600
20
15.714000
11
19.457600
21
15.714000
0
LINE
8
Layer 1
10
16.393000
20
16.214000
11
16.393000
21
15.213500
0
LINE
8
Layer 1
10
15.881900
20
15.711000
11
16.882400
21
15.711000
0
LINE
8
Layer 1
10
29.180700
20
15.714000
11
28.939742
21
14.500502
0
LINE
8
Layer 1
10
28.939742
20
14.500502
11
28.282663
21
13.509640
0
LINE
8
Layer 1
10
28.282663
20
13.509640
11
27.308157
21
12.841630
0
LINE
8
Layer 1
10
27.308157
20
12.841630
11
26.114920
21
12.596690
0
LINE
8
Layer 1
10
26.114920
20
12.596690
11
24.921683
21
12.841630
0
LINE
8
Layer 1
10
24.921683
20
12.841630
11
23.947178
21
13.509640
0
LINE
8
Layer 1
10
23.947178
20
13.509640
11
23.290098
21
14.500502
0
LINE
8
Layer 1
10
23.290098
20
14.500502
11
23.049140
21
15.714000
0
LINE
8
Layer 1
10
23.049140
20
15.714000
11
23.290098
21
16.927346
0
LINE
8
Layer 1
10
23.290098
20
16.927346
11
23.947178
21
17.918225
0
LINE
8
Layer 1
10
23.947178
20
17.918225
11
24.921683
21
18.586319
0
LINE
8
Layer 1
10
24.921683
20
18.586319
11
26.114920
21
18.831310
0
LINE
8
Layer 1
10
26.114920
20
18.831310
11
27.308174
21
18.586312
0
LINE
8
Layer 1
10
27.308174
20
18.586312
11
28.282678
21
17.918214
0
LINE
8
Layer 1
10
28.282678
20
17.918214
11
28.939747
21
16.927336
0
LINE
8
Layer 1
10
28.939747
20
16.927336
11
29.180700
21
15.714000
0
LINE
8
Layer 1
10
29.180700
20
15.714000
11
29.180700
21
15.714000
0
LINE
8
Layer 1
10
26.116100
20
16.214000
11
26.116100
21
15.213500
0
LINE
8
Layer 1
10
25.605000
20
15.711000
11
26.605200
21
15.711000
0
LINE
8
Layer 1
10
38.968600
20
15.714000
11
38.727642
21
14.500502
0
LINE
8
Layer 1
10
38.727642
20
14.500502
11
38.070562
21
13.509640
0
LINE
8
Layer 1
10
38.070562
20
13.509640
11
37.096057
21
12.841630
0
LINE
8
Layer 1
10
37.096057
20
12.841630
11
35.902820
21
12.596690
0
LINE
8
Layer 1
10
35.902820
20
12.596690
11
34.709435
21
12.841630
0
LINE
8
Layer 1
10
34.709435
20
12.841630
11
33.734946
21
13.509640
0
LINE
8
Layer 1
10
33.734946
20
13.509640
11
33.077949
21
14.500502
0
LINE
8
Layer 1
10
33.077949
20
14.500502
11
32.837040
21
15.714000
0
LINE
8
Layer 1
10
32.837040
20
15.714000
11
33.077949
21
16.927346
0
LINE
8
Layer 1
10
33.077949
20
16.927346
11
33.734946
21
17.918225
0
LINE
8
Layer 1
10
33.734946
20
17.918225
11
34.709435
21
18.586319
0
LINE
8
Layer 1
10
34.709435
20
18.586319
11
35.902820
21
18.831310
0
LINE
8
Layer 1
10
35.902820
20
18.831310
11
37.096074
21
18.586312
0
LINE
8
Layer 1
10
37.096074
20
18.586312
11
38.070577
21
17.918214
0
LINE
8
Layer 1
10
38.070577
20
17.918214
11
38.727647
21
16.927336
0
LINE
8
Layer 1
10
38.727647
20
16.927336
11
38.968600
21
15.714000
0
LINE
8
Layer 1
10
38.968600
20
15.714000
11
38.968600
21
15.714000
0
LINE
8
Layer 1
10
35.904000
20
16.214000
11
35.904000
21
15.213500
0
LINE
8
Layer 1
10
35.392900
20
15.711000
11
36.393100
21
15.711000
0
LINE
8
Layer 1
10
1.050910
20
0.534000
11
41.357100
21
0.534000
0
LINE
8
Layer 1
10
41.357100
20
0.534000
11
41.357100
21
128.998000
0
LINE
8
Layer 1
10
41.357100
20
128.998000
11
1.000090
21
128.998000
0
LINE
8
Layer 1
10
1.000090
20
128.998000
11
1.050910
21
0.534000
0
LINE
8
Layer 1
10
4.776370
20
127.363000
11
7.077030
21
127.363000
0
LINE
8
Layer 1
10
7.077030
20
127.363000
11
7.701106
21
127.237737
0
LINE
8
Layer 1
10
7.701106
20
127.237737
11
8.209712
21
126.895562
0
LINE
8
Layer 1
10
8.209712
20
126.895562
11
8.552094
21
126.386899
0
LINE
8
Layer 1
10
8.552094
20
126.386899
11
8.677500
21
125.762170
0
LINE
8
Layer 1
10
8.677500
20
125.762170
11
8.552094
21
125.138243
0
LINE
8
Layer 1
10
8.552094
20
125.138243
11
8.209710
21
124.629620
0
LINE
8
Layer 1
10
8.209710
20
124.629620
11
7.701104
21
124.287155
0
LINE
8
Layer 1
10
7.701104
20
124.287155
11
7.077030
21
124.161700
0
LINE
8
Layer 1
10
7.077030
20
124.161700
11
4.776370
21
124.162000
0
LINE
8
Layer 1
10
4.776370
20
124.162000
11
4.151698
21
124.287456
0
LINE
8
Layer 1
10
4.151698
20
124.287456
11
3.643159
21
124.629922
0
LINE
8
Layer 1
10
3.643159
20
124.629922
11
3.301107
21
125.138544
0
LINE
8
Layer 1
10
3.301107
20
125.138544
11
3.175900
21
125.762470
0
LINE
8
Layer 1
10
3.175900
20
125.762470
11
3.301107
21
126.386980
0
LINE
8
Layer 1
10
3.301107
20
126.386980
11
3.643158
21
126.895559
0
LINE
8
Layer 1
10
3.643158
20
126.895559
11
4.151697
21
127.237726
0
LINE
8
Layer 1
10
4.151697
20
127.237726
11
4.776370
21
127.363000
0
LINE
8
Layer 1
10
4.776370
20
127.363000
11
4.776370
21
127.363000
0
LINE
8
Layer 1
10
4.776370
20
5.338000
11
7.077030
21
5.338000
0
LINE
8
Layer 1
10
7.077030
20
5.338000
11
7.701106
21
5.212737
0
LINE
8
Layer 1
10
7.701106
20
5.212737
11
8.209712
21
4.870563
0
LINE
8
Layer 1
10
8.209712
20
4.870563
11
8.552094
21
4.361899
0
LINE
8
Layer 1
10
8.552094
20
4.361899
11
8.677500
21
3.737170
0
LINE
8
Layer 1
10
8.677500
20
3.737170
11
8.552094
21
3.113243
0
LINE
8
Layer 1
10
8.552094
20
3.113243
11
8.209710
21
2.604621
0
LINE
8
Layer 1
10
8.209710
20
2.604621
11
7.701104
21
2.262156
0
LINE
8
Layer 1
10
7.701104
20
2.262156
11
7.077030
21
2.136700
0
LINE
8
Layer 1
10
7.077030
20
2.136700
11
4.776370
21
2.136700
0
LINE
8
Layer 1
10
4.776370
20
2.136700
11
4.151698
21
2.262156
0
LINE
8
Layer 1
10
4.151698
20
2.262156
11
3.643159
21
2.604622
0
LINE
8
Layer 1
10
3.643159
20
2.604622
11
3.301107
21
3.113244
0
LINE
8
Layer 1
10
3.301107
20
3.113244
11
3.175900
21
3.737170
0
LINE
8
Layer 1
10
3.175900
20
3.737170
11
3.301107
21
4.361899
0
LINE
8
Layer 1
10
3.301107
20
4.361899
11
3.643158
21
4.870563
0
LINE
8
Layer 1
10
3.643158
20
4.870563
11
4.151697
21
5.212737
0
LINE
8
Layer 1
10
4.151697
20
5.212737
11
4.776370
21
5.338000
0
LINE
8
Layer 1
10
4.776370
20
5.338000
11
4.776370
21
5.338000
0
LINE
8
Layer 1
10
1.000150
20
129.998000
11
-0.000011
21
129.998000
0
LINE
8
Layer 1
10
-0.000011
20
129.998000
11
-0.000011
21
128.998000
0
LINE
8
Layer 1
10
-0.000011
20
128.998000
11
1.000150
21
128.998000
0
LINE
8
Layer 1
10
1.000150
20
128.998000
11
1.000150
21
129.998000
0
LINE
8
Layer 1
10
1.000150
20
129.998000
11
-0.000011
21
129.998000
0
LINE
8
Layer 1
10
-0.000011
20
129.998000
11
-0.000011
21
128.998000
0
LINE
8
Layer 1
10
-0.000011
20
128.998000
11
1.000150
21
128.998000
0
LINE
8
Layer 1
10
1.000150
20
128.998000
11
1.000150
21
129.998000
0
LINE
8
Layer 1
10
34.722400
20
127.201000
11
37.023100
21
127.201000
0
LINE
8
Layer 1
10
37.023100
20
127.201000
11
37.647176
21
127.075737
0
LINE
8
Layer 1
10
37.647176
20
127.075737
11
38.155782
21
126.733562
0
LINE
8
Layer 1
10
38.155782
20
126.733562
11
38.498164
21
126.224899
0
LINE
8
Layer 1
10
38.498164
20
126.224899
11
38.623570
21
125.600170
0
LINE
8
Layer 1
10
38.623570
20
125.600170
11
38.498164
21
124.976243
0
LINE
8
Layer 1
10
38.498164
20
124.976243
11
38.155780
21
124.467620
0
LINE
8
Layer 1
10
38.155780
20
124.467620
11
37.647174
21
124.125155
0
LINE
8
Layer 1
10
37.647174
20
124.125155
11
37.023100
21
123.999700
0
LINE
8
Layer 1
10
37.023100
20
123.999700
11
34.722400
21
124.000000
0
LINE
8
Layer 1
10
34.722400
20
124.000000
11
34.097728
21
124.125456
0
LINE
8
Layer 1
10
34.097728
20
124.125456
11
33.589189
21
124.467922
0
LINE
8
Layer 1
10
33.589189
20
124.467922
11
33.247137
21
124.976544
0
LINE
8
Layer 1
10
33.247137
20
124.976544
11
33.121930
21
125.600470
0
LINE
8
Layer 1
10
33.121930
20
125.600470
11
33.247130
21
126.224980
0
LINE
8
Layer 1
10
33.247130
20
126.224980
11
33.589191
21
126.733559
0
LINE
8
Layer 1
10
33.589191
20
126.733559
11
34.097740
21
127.075726
0
LINE
8
Layer 1
10
34.097740
20
127.075726
11
34.722400
21
127.201000
0
LINE
8
Layer 1
10
34.722400
20
127.201000
11
34.722400
21
127.201000
 0 
ENDSEC
 0 
EOF