999
"DXF R12 Output" (www.mydxf.blogspot.com)
 0 
SECTION
 2 
HEADER
 9 
$ACADVER
 1 
AC1009
 9 
$EXTMIN
 10 
 0 
 20 
 0 
 9 
$EXTMAX
 10 
 8.5 
 20 
 11 
 0 
ENDSEC
 0 
SECTION
 2 
ENTITIES
0
LINE
8
Page 1
10
5.074700
20
3.427230
11
15.234700
21
3.427230
0
LINE
8
Page 1
10
15.234700
20
3.427230
11
15.234700
21
132.083000
0
LINE
8
Page 1
10
15.234700
20
132.083000
11
5.074700
21
132.083000
0
LINE
8
Page 1
10
5.074700
20
132.083000
11
5.074700
21
3.427230
0
LINE
8
Layer 1
10
13.297000
20
102.863000
11
13.056136
21
101.650129
0
LINE
8
Layer 1
10
13.056136
20
101.650129
11
12.399316
21
100.659641
0
LINE
8
Layer 1
10
12.399316
20
100.659641
11
11.425195
21
99.991813
0
LINE
8
Layer 1
10
11.425195
20
99.991813
11
10.232430
21
99.746920
0
LINE
8
Layer 1
10
10.232430
20
99.746920
11
9.039517
21
99.991813
0
LINE
8
Layer 1
10
9.039517
20
99.991813
11
8.065413
21
100.659641
0
LINE
8
Layer 1
10
8.065413
20
100.659641
11
7.408674
21
101.650129
0
LINE
8
Layer 1
10
7.408674
20
101.650129
11
7.167860
21
102.863000
0
LINE
8
Layer 1
10
7.167860
20
102.863000
11
7.408674
21
104.076073
0
LINE
8
Layer 1
10
7.408674
20
104.076073
11
8.065413
21
105.066665
0
LINE
8
Layer 1
10
8.065413
20
105.066665
11
9.039517
21
105.734532
0
LINE
8
Layer 1
10
9.039517
20
105.734532
11
10.232430
21
105.979430
0
LINE
8
Layer 1
10
10.232430
20
105.979430
11
11.425195
21
105.734322
0
LINE
8
Layer 1
10
11.425195
20
105.734322
11
12.399316
21
105.066429
0
LINE
8
Layer 1
10
12.399316
20
105.066429
11
13.056136
21
104.075929
0
LINE
8
Layer 1
10
13.056136
20
104.075929
11
13.297000
21
102.863000
0
LINE
8
Layer 1
10
13.297000
20
102.863000
11
13.297000
21
102.863000
0
LINE
8
Layer 1
10
13.297000
20
89.366500
11
13.056136
21
88.153629
0
LINE
8
Layer 1
10
13.056136
20
88.153629
11
12.399316
21
87.163141
0
LINE
8
Layer 1
10
12.399316
20
87.163141
11
11.425195
21
86.495313
0
LINE
8
Layer 1
10
11.425195
20
86.495313
11
10.232430
21
86.250420
0
LINE
8
Layer 1
10
10.232430
20
86.250420
11
9.039517
21
86.495313
0
LINE
8
Layer 1
10
9.039517
20
86.495313
11
8.065413
21
87.163141
0
LINE
8
Layer 1
10
8.065413
20
87.163141
11
7.408674
21
88.153629
0
LINE
8
Layer 1
10
7.408674
20
88.153629
11
7.167860
21
89.366500
0
LINE
8
Layer 1
10
7.167860
20
89.366500
11
7.408674
21
90.579371
0
LINE
8
Layer 1
10
7.408674
20
90.579371
11
8.065413
21
91.569859
0
LINE
8
Layer 1
10
8.065413
20
91.569859
11
9.039517
21
92.237687
0
LINE
8
Layer 1
10
9.039517
20
92.237687
11
10.232430
21
92.482580
0
LINE
8
Layer 1
10
10.232430
20
92.482580
11
11.425195
21
92.237688
0
LINE
8
Layer 1
10
11.425195
20
92.237688
11
12.399316
21
91.569848
0
LINE
8
Layer 1
10
12.399316
20
91.569848
11
13.056136
21
90.579353
0
LINE
8
Layer 1
10
13.056136
20
90.579353
11
13.297000
21
89.366500
0
LINE
8
Layer 1
10
13.297000
20
89.366500
11
13.297000
21
89.366500
0
LINE
8
Layer 1
10
13.297000
20
75.624000
11
13.056136
21
74.411129
0
LINE
8
Layer 1
10
13.056136
20
74.411129
11
12.399316
21
73.420641
0
LINE
8
Layer 1
10
12.399316
20
73.420641
11
11.425195
21
72.752813
0
LINE
8
Layer 1
10
11.425195
20
72.752813
11
10.232430
21
72.507920
0
LINE
8
Layer 1
10
10.232430
20
72.507920
11
9.039517
21
72.752813
0
LINE
8
Layer 1
10
9.039517
20
72.752813
11
8.065413
21
73.420641
0
LINE
8
Layer 1
10
8.065413
20
73.420641
11
7.408674
21
74.411129
0
LINE
8
Layer 1
10
7.408674
20
74.411129
11
7.167860
21
75.624000
0
LINE
8
Layer 1
10
7.167860
20
75.624000
11
7.408674
21
76.837073
0
LINE
8
Layer 1
10
7.408674
20
76.837073
11
8.065413
21
77.827665
0
LINE
8
Layer 1
10
8.065413
20
77.827665
11
9.039517
21
78.495532
0
LINE
8
Layer 1
10
9.039517
20
78.495532
11
10.232430
21
78.740430
0
LINE
8
Layer 1
10
10.232430
20
78.740430
11
11.425195
21
78.495519
0
LINE
8
Layer 1
10
11.425195
20
78.495519
11
12.399316
21
77.827654
0
LINE
8
Layer 1
10
12.399316
20
77.827654
11
13.056136
21
76.837069
0
LINE
8
Layer 1
10
13.056136
20
76.837069
11
13.297000
21
75.624000
0
LINE
8
Layer 1
10
13.297000
20
75.624000
11
13.297000
21
75.624000
0
LINE
8
Layer 1
10
13.297000
20
45.808100
11
13.056136
21
44.595229
0
LINE
8
Layer 1
10
13.056136
20
44.595229
11
12.399316
21
43.604741
0
LINE
8
Layer 1
10
12.399316
20
43.604741
11
11.425195
21
42.936913
0
LINE
8
Layer 1
10
11.425195
20
42.936913
11
10.232430
21
42.692020
0
LINE
8
Layer 1
10
10.232430
20
42.692020
11
9.039517
21
42.936913
0
LINE
8
Layer 1
10
9.039517
20
42.936913
11
8.065413
21
43.604741
0
LINE
8
Layer 1
10
8.065413
20
43.604741
11
7.408674
21
44.595229
0
LINE
8
Layer 1
10
7.408674
20
44.595229
11
7.167860
21
45.808100
0
LINE
8
Layer 1
10
7.167860
20
45.808100
11
7.408674
21
47.021119
0
LINE
8
Layer 1
10
7.408674
20
47.021119
11
8.065413
21
48.011590
0
LINE
8
Layer 1
10
8.065413
20
48.011590
11
9.039517
21
48.679336
0
LINE
8
Layer 1
10
9.039517
20
48.679336
11
10.232430
21
48.924180
0
LINE
8
Layer 1
10
10.232430
20
48.924180
11
11.425195
21
48.679345
0
LINE
8
Layer 1
10
11.425195
20
48.679345
11
12.399316
21
48.011597
0
LINE
8
Layer 1
10
12.399316
20
48.011597
11
13.056136
21
47.021122
0
LINE
8
Layer 1
10
13.056136
20
47.021122
11
13.297000
21
45.808100
0
LINE
8
Layer 1
10
13.297000
20
45.808100
11
13.297000
21
45.808100
0
LINE
8
Layer 1
10
13.297000
20
32.385000
11
13.056136
21
31.171981
0
LINE
8
Layer 1
10
13.056136
20
31.171981
11
12.399316
21
30.181510
0
LINE
8
Layer 1
10
12.399316
20
30.181510
11
11.425195
21
29.513764
0
LINE
8
Layer 1
10
11.425195
20
29.513764
11
10.232430
21
29.268920
0
LINE
8
Layer 1
10
10.232430
20
29.268920
11
9.039517
21
29.513764
0
LINE
8
Layer 1
10
9.039517
20
29.513764
11
8.065413
21
30.181510
0
LINE
8
Layer 1
10
8.065413
20
30.181510
11
7.408674
21
31.171981
0
LINE
8
Layer 1
10
7.408674
20
31.171981
11
7.167860
21
32.385000
0
LINE
8
Layer 1
10
7.167860
20
32.385000
11
7.408674
21
33.597871
0
LINE
8
Layer 1
10
7.408674
20
33.597871
11
8.065413
21
34.588359
0
LINE
8
Layer 1
10
8.065413
20
34.588359
11
9.039517
21
35.256187
0
LINE
8
Layer 1
10
9.039517
20
35.256187
11
10.232430
21
35.501080
0
LINE
8
Layer 1
10
10.232430
20
35.501080
11
11.425195
21
35.256188
0
LINE
8
Layer 1
10
11.425195
20
35.256188
11
12.399316
21
34.588347
0
LINE
8
Layer 1
10
12.399316
20
34.588347
11
13.056136
21
33.597853
0
LINE
8
Layer 1
10
13.056136
20
33.597853
11
13.297000
21
32.385000
0
LINE
8
Layer 1
10
13.297000
20
32.385000
11
13.297000
21
32.385000
0
LINE
8
Layer 1
10
13.297000
20
18.407600
11
13.056136
21
17.194581
0
LINE
8
Layer 1
10
13.056136
20
17.194581
11
12.399316
21
16.204110
0
LINE
8
Layer 1
10
12.399316
20
16.204110
11
11.425195
21
15.536364
0
LINE
8
Layer 1
10
11.425195
20
15.536364
11
10.232430
21
15.291520
0
LINE
8
Layer 1
10
10.232430
20
15.291520
11
9.039517
21
15.536364
0
LINE
8
Layer 1
10
9.039517
20
15.536364
11
8.065413
21
16.204110
0
LINE
8
Layer 1
10
8.065413
20
16.204110
11
7.408674
21
17.194581
0
LINE
8
Layer 1
10
7.408674
20
17.194581
11
7.167860
21
18.407600
0
LINE
8
Layer 1
10
7.167860
20
18.407600
11
7.408674
21
19.620471
0
LINE
8
Layer 1
10
7.408674
20
19.620471
11
8.065413
21
20.610959
0
LINE
8
Layer 1
10
8.065413
20
20.610959
11
9.039517
21
21.278787
0
LINE
8
Layer 1
10
9.039517
20
21.278787
11
10.232430
21
21.523680
0
LINE
8
Layer 1
10
10.232430
20
21.523680
11
11.425195
21
21.278788
0
LINE
8
Layer 1
10
11.425195
20
21.278788
11
12.399316
21
20.610948
0
LINE
8
Layer 1
10
12.399316
20
20.610948
11
13.056136
21
19.620453
0
LINE
8
Layer 1
10
13.056136
20
19.620453
11
13.297000
21
18.407600
0
LINE
8
Layer 1
10
13.297000
20
18.407600
11
13.297000
21
18.407600
0
LINE
8
Layer 1
10
13.297000
20
116.541000
11
13.056136
21
115.327981
0
LINE
8
Layer 1
10
13.056136
20
115.327981
11
12.399316
21
114.337510
0
LINE
8
Layer 1
10
12.399316
20
114.337510
11
11.425195
21
113.669764
0
LINE
8
Layer 1
10
11.425195
20
113.669764
11
10.232430
21
113.424920
0
LINE
8
Layer 1
10
10.232430
20
113.424920
11
9.039517
21
113.669764
0
LINE
8
Layer 1
10
9.039517
20
113.669764
11
8.065413
21
114.337510
0
LINE
8
Layer 1
10
8.065413
20
114.337510
11
7.408674
21
115.327981
0
LINE
8
Layer 1
10
7.408674
20
115.327981
11
7.167860
21
116.541000
0
LINE
8
Layer 1
10
7.167860
20
116.541000
11
7.408674
21
117.753871
0
LINE
8
Layer 1
10
7.408674
20
117.753871
11
8.065413
21
118.744359
0
LINE
8
Layer 1
10
8.065413
20
118.744359
11
9.039517
21
119.412187
0
LINE
8
Layer 1
10
9.039517
20
119.412187
11
10.232430
21
119.657080
0
LINE
8
Layer 1
10
10.232430
20
119.657080
11
11.425195
21
119.412174
0
LINE
8
Layer 1
10
11.425195
20
119.412174
11
12.399316
21
118.744385
0
LINE
8
Layer 1
10
12.399316
20
118.744385
11
13.056136
21
117.753923
0
LINE
8
Layer 1
10
13.056136
20
117.753923
11
13.297000
21
116.541000
0
LINE
8
Layer 1
10
13.297000
20
116.541000
11
13.297000
21
116.541000
0
LINE
8
Layer 1
10
13.297000
20
59.377300
11
13.056136
21
58.164429
0
LINE
8
Layer 1
10
13.056136
20
58.164429
11
12.399316
21
57.173941
0
LINE
8
Layer 1
10
12.399316
20
57.173941
11
11.425195
21
56.506113
0
LINE
8
Layer 1
10
11.425195
20
56.506113
11
10.232430
21
56.261220
0
LINE
8
Layer 1
10
10.232430
20
56.261220
11
9.039517
21
56.506113
0
LINE
8
Layer 1
10
9.039517
20
56.506113
11
8.065413
21
57.173941
0
LINE
8
Layer 1
10
8.065413
20
57.173941
11
7.408674
21
58.164429
0
LINE
8
Layer 1
10
7.408674
20
58.164429
11
7.167860
21
59.377300
0
LINE
8
Layer 1
10
7.167860
20
59.377300
11
7.408674
21
60.590373
0
LINE
8
Layer 1
10
7.408674
20
60.590373
11
8.065413
21
61.580965
0
LINE
8
Layer 1
10
8.065413
20
61.580965
11
9.039517
21
62.248832
0
LINE
8
Layer 1
10
9.039517
20
62.248832
11
10.232430
21
62.493730
0
LINE
8
Layer 1
10
10.232430
20
62.493730
11
11.425195
21
62.248819
0
LINE
8
Layer 1
10
11.425195
20
62.248819
11
12.399316
21
61.580954
0
LINE
8
Layer 1
10
12.399316
20
61.580954
11
13.056136
21
60.590369
0
LINE
8
Layer 1
10
13.056136
20
60.590369
11
13.297000
21
59.377300
0
LINE
8
Layer 1
10
13.297000
20
59.377300
11
13.297000
21
59.377300
0
LINE
8
Layer 1
10
9.075210
20
130.368000
11
11.375000
21
130.368000
0
LINE
8
Layer 1
10
11.375000
20
130.368000
11
11.998831
21
130.242786
0
LINE
8
Layer 1
10
11.998831
20
130.242786
11
12.507236
21
129.900746
0
LINE
8
Layer 1
10
12.507236
20
129.900746
11
12.849484
21
129.392283
0
LINE
8
Layer 1
10
12.849484
20
129.392283
11
12.974840
21
128.767800
0
LINE
8
Layer 1
10
12.974840
20
128.767800
11
12.849483
21
128.144118
0
LINE
8
Layer 1
10
12.849483
20
128.144118
11
12.507235
21
127.635696
0
LINE
8
Layer 1
10
12.507235
20
127.635696
11
11.998829
21
127.293366
0
LINE
8
Layer 1
10
11.998829
20
127.293366
11
11.375000
21
127.167960
0
LINE
8
Layer 1
10
11.375000
20
127.167960
11
9.075210
21
127.168000
0
LINE
8
Layer 1
10
9.075210
20
127.168000
11
8.450784
21
127.293407
0
LINE
8
Layer 1
10
8.450784
20
127.293407
11
7.942445
21
127.635738
0
LINE
8
Layer 1
10
7.942445
20
127.635738
11
7.600528
21
128.144160
0
LINE
8
Layer 1
10
7.600528
20
128.144160
11
7.475370
21
128.767840
0
LINE
8
Layer 1
10
7.475370
20
128.767840
11
7.600528
21
129.392136
0
LINE
8
Layer 1
10
7.600528
20
129.392136
11
7.942444
21
129.900605
0
LINE
8
Layer 1
10
7.942444
20
129.900605
11
8.450783
21
130.242732
0
LINE
8
Layer 1
10
8.450783
20
130.242732
11
9.075210
21
130.368000
0
LINE
8
Layer 1
10
9.075210
20
130.368000
11
9.075210
21
130.368000
0
LINE
8
Layer 1
10
9.075210
20
8.379090
11
11.375000
21
8.379090
0
LINE
8
Layer 1
10
11.375000
20
8.379090
11
11.998831
21
8.253876
0
LINE
8
Layer 1
10
11.998831
20
8.253876
11
12.507236
21
7.911836
0
LINE
8
Layer 1
10
12.507236
20
7.911836
11
12.849484
21
7.403373
0
LINE
8
Layer 1
10
12.849484
20
7.403373
11
12.974840
21
6.778890
0
LINE
8
Layer 1
10
12.974840
20
6.778890
11
12.849483
21
6.155208
0
LINE
8
Layer 1
10
12.849483
20
6.155208
11
12.507235
21
5.646786
0
LINE
8
Layer 1
10
12.507235
20
5.646786
11
11.998829
21
5.304456
0
LINE
8
Layer 1
10
11.998829
20
5.304456
11
11.375000
21
5.179050
0
LINE
8
Layer 1
10
11.375000
20
5.179050
11
9.075210
21
5.179050
0
LINE
8
Layer 1
10
9.075210
20
5.179050
11
8.450784
21
5.304457
0
LINE
8
Layer 1
10
8.450784
20
5.304457
11
7.942445
21
5.646788
0
LINE
8
Layer 1
10
7.942445
20
5.646788
11
7.600528
21
6.155210
0
LINE
8
Layer 1
10
7.600528
20
6.155210
11
7.475370
21
6.778890
0
LINE
8
Layer 1
10
7.475370
20
6.778890
11
7.600528
21
7.403373
0
LINE
8
Layer 1
10
7.600528
20
7.403373
11
7.942444
21
7.911836
0
LINE
8
Layer 1
10
7.942444
20
7.911836
11
8.450783
21
8.253876
0
LINE
8
Layer 1
10
8.450783
20
8.253876
11
9.075210
21
8.379090
0
LINE
8
Layer 1
10
9.075210
20
8.379090
11
9.075210
21
8.379090
0
LINE
8
Layer 1
10
4.074930
20
133.083000
11
5.074700
21
133.083000
0
LINE
8
Layer 1
10
5.074700
20
133.083000
11
5.074700
21
132.083000
0
LINE
8
Layer 1
10
5.074700
20
132.083000
11
4.074930
21
132.083000
0
LINE
8
Layer 1
10
4.074930
20
132.083000
11
4.074930
21
133.083000
 0 
ENDSEC
 0 
EOF