<?xml version="1.0" encoding="UTF-8" standalone="no"?>
<!-- Created with Inkscape (http://www.inkscape.org/) -->

<svg
   version="1.1"
   id="svg9"
   width="100.0mm"
   height="130.0mm"
   viewBox="0 0 100.0 130.0"
   sodipodi:docname="panelMult.svg"
   inkscape:version="1.2.2 (732a01da63, 2022-12-09, custom)"
   xmlns:inkscape="http://www.inkscape.org/namespaces/inkscape"
   xmlns:sodipodi="http://sodipodi.sourceforge.net/DTD/sodipodi-0.dtd"
   xmlns="http://www.w3.org/2000/svg"
   xmlns:svg="http://www.w3.org/2000/svg">
  <defs
     id="defs13">
    <clipPath
       clipPathUnits="userSpaceOnUse"
       id="clipPath25">
      <path
         d="M 0,388.803 H 115.21 V 0 H 0 Z"
         id="path23" />
    </clipPath>
    <clipPath
       clipPathUnits="userSpaceOnUse"
       id="clipPath43">
      <path
         d="M 0,388.803 H 115.21 V 0 H 0 Z"
         id="path41" />
    </clipPath>
    <clipPath
       clipPathUnits="userSpaceOnUse"
       id="clipPath53">
      <path
         d="M 0,388.803 H 115.21 V 0 H 0 Z"
         id="path51" />
    </clipPath>
    <clipPath
       clipPathUnits="userSpaceOnUse"
       id="clipPath63">
      <path
         d="M 0,388.803 H 115.21 V 0 H 0 Z"
         id="path61" />
    </clipPath>
    <clipPath
       clipPathUnits="userSpaceOnUse"
       id="clipPath73">
      <path
         d="M 0,388.803 H 115.21 V 0 H 0 Z"
         id="path71" />
    </clipPath>
  </defs>
  <sodipodi:namedview
     id="namedview11"
     pagecolor="#ffffff"
     bordercolor="#000000"
     borderopacity="0.25"
     inkscape:showpageshadow="2"
     inkscape:pageopacity="0.0"
     inkscape:pagecheckerboard="0"
     inkscape:deskcolor="#d1d1d1"
     showgrid="true"
     inkscape:zoom="0.90509668"
     inkscape:cx="178.9864"
     inkscape:cy="325.37961"
     inkscape:window-width="1920"
     inkscape:window-height="990"
     inkscape:window-x="0"
     inkscape:window-y="28"
     inkscape:window-maximized="1"
     inkscape:current-layer="g38039"
     borderlayer="true"
     inkscape:document-units="mm">
    <inkscape:page
       x="0"
       y="0"
       id="page15"
       width="100"
       height="130" />
    <inkscape:grid
       spacingx="2.54"
       spacingy="2.54"
       empspacing="1"
       type="xygrid"
       units="mm"
       id="grid38000" />
  </sodipodi:namedview>
  <g
     id="g17"
     inkscape:groupmode="layer"
     inkscape:label="Page 1"
     transform="matrix(1.3333333,0,0,-1.3333333,0,518.404)">
    <g
       id="g67"
       inkscape:label="cut edge"
       style="display:none"
       transform="matrix(0.26447715,0,0,0.26447715,-3.0422278,289.01546)">
      <g
         id="g69"
         clip-path="url(#clipPath73)"
         style="display:inline">
        <g
           id="g75"
           transform="translate(27.2363,52.8237)">
          <path
             d="M 0,0 H 2.835 M 1.417,1.417 v -2.834 m 0,10.251 C -3.38,8.834 -7.27,4.879 -7.27,0 c 0,-4.878 3.89,-8.833 8.687,-8.833 4.798,0 8.687,3.955 8.687,8.833 0,4.879 -3.889,8.834 -8.687,8.834 z M 0,39.621 h 2.835 m -1.418,1.418 v -2.835 m 0,10.251 c -4.797,0 -8.687,-3.955 -8.687,-8.834 0,-4.878 3.89,-8.833 8.687,-8.833 4.798,0 8.687,3.955 8.687,8.833 0,4.879 -3.889,8.834 -8.687,8.834 z m 8.687,-8.834 c 0,-4.878 -3.889,-8.833 -8.687,-8.833 -4.797,0 -8.687,3.955 -8.687,8.833 0,4.879 3.89,8.834 8.687,8.834 4.798,0 8.687,-3.955 8.687,-8.834 z m 0,0 c 0,-4.878 -3.889,-8.833 -8.687,-8.833 -4.797,0 -8.687,3.955 -8.687,8.833 0,4.879 3.89,8.834 8.687,8.834 4.798,0 8.687,-3.955 8.687,-8.834 z M 0,278.174 h 2.835 m -1.418,1.418 v -2.835 m 0,10.251 c -4.797,0 -8.687,-3.955 -8.687,-8.834 0,-4.879 3.89,-8.833 8.687,-8.833 4.798,0 8.687,3.954 8.687,8.833 0,4.879 -3.889,8.834 -8.687,8.834 z M 0,239.401 h 2.835 m -1.418,1.417 v -2.835 m 0,10.251 c -4.797,0 -8.687,-3.955 -8.687,-8.833 0,-4.879 3.89,-8.834 8.687,-8.834 4.798,0 8.687,3.955 8.687,8.834 0,4.878 -3.889,8.833 -8.687,8.833 z M 0,201.144 h 2.835 m -1.418,1.417 v -2.834 m 0,10.25 c -4.797,0 -8.687,-3.955 -8.687,-8.833 0,-4.879 3.89,-8.834 8.687,-8.834 4.798,0 8.687,3.955 8.687,8.834 0,4.878 -3.889,8.833 -8.687,8.833 z M 0,162.189 h 2.835 m -1.418,1.417 v -2.835 m 0,10.251 c -4.797,0 -8.687,-3.955 -8.687,-8.833 0,-4.879 3.89,-8.834 8.687,-8.834 4.798,0 8.687,3.955 8.687,8.834 0,4.878 -3.889,8.833 -8.687,8.833 z M 0,116.174 h 2.835 m -1.418,1.417 v -2.834 m 0,10.251 c -4.797,0 -8.687,-3.955 -8.687,-8.834 0,-4.879 3.89,-8.833 8.687,-8.833 4.798,0 8.687,3.954 8.687,8.833 0,4.879 -3.889,8.834 -8.687,8.834 z M 0,77.671 h 2.835 m -1.418,1.417 v -2.834 m 0,10.251 c -4.797,0 -8.687,-3.955 -8.687,-8.834 0,-4.879 3.89,-8.834 8.687,-8.834 4.798,0 8.687,3.955 8.687,8.834 0,4.879 -3.889,8.834 -8.687,8.834 z M -1.862,-28.427 h 6.519 c 2.511,0 4.534,-2.02 4.534,-4.536 0,-2.511 -2.023,-4.535 -4.534,-4.535 h -6.519 c -2.516,0 -4.535,2.024 -4.535,4.535 0,2.516 2.019,4.536 4.535,4.536 z m 0,345.797 h 6.519 c 2.511,0 4.534,-2.02 4.534,-4.536 0,-2.511 -2.023,-4.535 -4.534,-4.535 h -6.519 c -2.516,0 -4.535,2.024 -4.535,4.535 0,2.516 2.019,4.536 4.535,4.536 z M 10.104,0 c 0,-4.878 -3.889,-8.833 -8.687,-8.833 -4.797,0 -8.687,3.955 -8.687,8.833 0,4.879 3.89,8.834 8.687,8.834 4.798,0 8.687,-3.955 8.687,-8.834 z m 0,39.621 c 0,-4.878 -3.889,-8.833 -8.687,-8.833 -4.797,0 -8.687,3.955 -8.687,8.833 0,4.879 3.89,8.834 8.687,8.834 4.798,0 8.687,-3.955 8.687,-8.834 z m 0,76.514 c 0,-4.879 -3.889,-8.834 -8.687,-8.834 -4.797,0 -8.687,3.955 -8.687,8.834 0,4.879 3.89,8.834 8.687,8.834 4.798,0 8.687,-3.955 8.687,-8.834 z m 0,-38.464 c 0,-4.879 -3.889,-8.834 -8.687,-8.834 -4.797,0 -8.687,3.955 -8.687,8.834 0,4.879 3.89,8.834 8.687,8.834 4.798,0 8.687,-3.955 8.687,-8.834 z m 0,84.518 c 0,-4.879 -3.889,-8.834 -8.687,-8.834 -4.797,0 -8.687,3.955 -8.687,8.834 0,4.878 3.89,8.833 8.687,8.833 4.798,0 8.687,-3.955 8.687,-8.833 z m 0,38.955 c 0,-4.879 -3.889,-8.834 -8.687,-8.834 -4.797,0 -8.687,3.955 -8.687,8.834 0,4.878 3.89,8.833 8.687,8.833 4.798,0 8.687,-3.955 8.687,-8.833 z m 0,77.03 c 0,-4.878 -3.889,-8.833 -8.687,-8.833 -4.797,0 -8.687,3.955 -8.687,8.833 0,4.879 3.89,8.834 8.687,8.834 4.798,0 8.687,-3.955 8.687,-8.834 z m 0,-38.773 c 0,-4.879 -3.889,-8.834 -8.687,-8.834 -4.797,0 -8.687,3.955 -8.687,8.834 0,4.878 3.89,8.833 8.687,8.833 4.798,0 8.687,-3.955 8.687,-8.833 z M 10.104,0 c 0,-4.878 -3.889,-8.833 -8.687,-8.833 -4.797,0 -8.687,3.955 -8.687,8.833 0,4.879 3.89,8.834 8.687,8.834 4.798,0 8.687,-3.955 8.687,-8.834 z m 0,39.621 c 0,-4.878 -3.889,-8.833 -8.687,-8.833 -4.797,0 -8.687,3.955 -8.687,8.833 0,4.879 3.89,8.834 8.687,8.834 4.798,0 8.687,-3.955 8.687,-8.834 z m 0,38.05 c 0,-4.879 -3.889,-8.834 -8.687,-8.834 -4.797,0 -8.687,3.955 -8.687,8.834 0,4.879 3.89,8.834 8.687,8.834 4.798,0 8.687,-3.955 8.687,-8.834 z m 0,84.518 c 0,-4.879 -3.889,-8.834 -8.687,-8.834 -4.797,0 -8.687,3.955 -8.687,8.834 0,4.878 3.89,8.833 8.687,8.833 4.798,0 8.687,-3.955 8.687,-8.833 z m 0,38.955 c 0,-4.879 -3.889,-8.834 -8.687,-8.834 -4.797,0 -8.687,3.955 -8.687,8.834 0,4.878 3.89,8.833 8.687,8.833 4.798,0 8.687,-3.955 8.687,-8.833 z m 0,38.257 c 0,-4.879 -3.889,-8.834 -8.687,-8.834 -4.797,0 -8.687,3.955 -8.687,8.834 0,4.878 3.89,8.833 8.687,8.833 4.798,0 8.687,-3.955 8.687,-8.833 z m -22.915,84.988 h -2.834 v -2.834 h 2.834 z m 0,-367.057 h 28.694 v 364.223 h -28.694 z"
             style="fill:none;stroke:#000000;stroke-width:0.177;stroke-linecap:butt;stroke-linejoin:miter;stroke-miterlimit:10;stroke-dasharray:none;stroke-opacity:1"
             id="path77" />
        </g>
        <path
           d="m 11.591,374.378 h 2.834 v 2.834 h -2.834 z"
           style="fill:#000000;fill-opacity:1;fill-rule:nonzero;stroke:none"
           id="path79" />
      </g>
    </g>
  </g>
  <g
     inkscape:label="[fixed] BG"
     inkscape:groupmode="layer"
     sodipodi:insensitive="true"
     id="g38027"
     style="display:none">
    <rect
       x="0"
       y="0"
       width="100"
       height="130"
       style="fill:#ffffff;fill-opacity:1;stroke:none"
       id="rect38025" />
  </g>
  <g
     inkscape:label="Edge.Cuts"
     inkscape:groupmode="layer"
     id="g38029" />
  <g
     inkscape:label="B.Cu"
     inkscape:groupmode="layer"
     id="g38031" />
  <g
     inkscape:label="B.Mask"
     inkscape:groupmode="layer"
     id="g38033"
     style="display:none">
    <g
       id="g19"
       inkscape:label="B mask"
       transform="matrix(0.35263619,0,0,-0.35263619,-4.0563035,133.05006)"
       style="display:inline">
      <g
         id="g21"
         clip-path="url(#clipPath25)">
        <g
           id="g27"
           transform="translate(28.7729,172.6523)">
          <path
             d="m 0,0 c -2.033,0 -3.688,-1.72 -3.688,-3.833 0,-2.114 1.655,-3.834 3.688,-3.834 2.033,0 3.687,1.72 3.687,3.834 C 3.687,-1.72 2.033,0 0,0"
             style="fill:#000000;fill-opacity:1;fill-rule:nonzero;stroke:none"
             id="path29" />
        </g>
        <g
           id="g31"
           transform="translate(35.2705,156.6592)">
          <path
             d="m 0,0 c -3.358,-1.835 -5.498,-5.302 -5.498,-9.129 v -102.629 l -2,-0.018 V -9.129 c 0,3.827 -2.139,7.294 -5.498,9.129 -4.276,2.338 -7.189,6.908 -7.189,12.16 0,7.628 6.141,13.833 13.687,13.833 7.547,0 13.687,-6.205 13.687,-13.833 C 7.189,6.908 4.277,2.338 0,0 M -20.845,-146.504 H 7.849 v 364.223 h -28.694 z"
             style="fill:#000000;fill-opacity:1;fill-rule:nonzero;stroke:none"
             id="path33" />
        </g>
        <path
           d="m 11.591,374.378 h 2.834 v 2.834 h -2.834 z"
           style="fill:#000000;fill-opacity:1;fill-rule:nonzero;stroke:none"
           id="path35" />
      </g>
    </g>
  </g>
  <g
     inkscape:label="B.SilkS"
     inkscape:groupmode="layer"
     id="g38035" />
  <g
     inkscape:label="F.Cu"
     inkscape:groupmode="layer"
     id="g38037"
     style="display:none">
    <g
       id="g37"
       inkscape:label="f cu"
       style="display:inline;fill:#1a1a1a"
       transform="matrix(0.35263619,0,0,-0.35263619,-4.0563035,133.05006)">
      <g
         id="g39"
         clip-path="url(#clipPath43)"
         style="display:inline;fill:#1a1a1a">
        <path
           d="m 11.591,377.212 h 2.834 v -2.834 H 11.591 Z M 37.15,32.161 c 0.104,-0.093 0.173,-0.242 0.173,-0.378 0,-0.278 -0.225,-0.503 -0.503,-0.503 -0.158,0 -0.278,0.082 -0.321,0.117 l -0.008,0.007 -3.205,3.033 c -0.124,0.126 -0.183,0.243 -0.183,0.361 0,0.126 0.05,0.251 0.153,0.383 l 2.962,3.799 c 0.088,0.112 0.225,0.175 0.377,0.175 0.277,0 0.503,-0.226 0.503,-0.503 0,-0.112 -0.039,-0.219 -0.116,-0.319 l -2.106,-2.764 c -0.047,-0.061 -0.048,-0.098 -0.045,-0.104 0.002,-0.004 0.033,-0.019 0.102,-0.011 l 1.819,0.19 c 0.134,0.018 0.272,-0.027 0.38,-0.122 0.112,-0.097 0.173,-0.233 0.173,-0.382 0,-0.265 -0.207,-0.491 -0.461,-0.503 l -1.902,-0.188 c -0.073,-0.009 -0.097,-0.032 -0.098,-0.037 -0.002,-0.004 0.002,-0.038 0.057,-0.093 z M 23.949,70.596 c 0,-0.078 -0.03,-0.208 -0.116,-0.319 l -0.792,-1.001 c -0.107,-0.145 -0.268,-0.227 -0.45,-0.227 l -2.745,-0.018 c -0.144,0 -0.275,0.054 -0.369,0.152 -0.093,0.096 -0.141,0.226 -0.135,0.365 l 0.234,6.239 c 0.012,0.27 0.238,0.489 0.503,0.489 0.138,0 0.272,-0.058 0.367,-0.157 0.094,-0.098 0.142,-0.226 0.136,-0.361 l -0.197,-5.571 c -0.002,-0.036 10e-4,-0.081 0.03,-0.111 0.03,-0.032 0.079,-0.038 0.114,-0.038 l 1.826,0.017 c 0.025,0 0.027,0 0.05,0.028 l 0.637,0.816 c 0.103,0.126 0.253,0.201 0.404,0.201 0.278,0 0.503,-0.226 0.503,-0.504 m 11.863,40.16 c 0,-0.026 -0.027,-0.059 -0.07,-0.089 l -1.279,-0.864 -0.002,-10e-4 c -0.053,-0.038 -0.086,-0.037 -0.094,-0.032 -0.013,0.006 -0.033,0.041 -0.033,0.111 l -0.018,1.737 c 0,0.059 0.017,0.095 0.034,0.104 0.004,0.003 0.01,0.004 0.018,0.004 0.021,0 0.051,-0.009 0.087,-0.033 l 1.29,-0.857 c 0.041,-0.026 0.066,-0.056 0.067,-0.08 m -1.78,2.372 c -0.154,0.097 -0.334,0.105 -0.484,0.023 -0.149,-0.083 -0.237,-0.242 -0.237,-0.427 l 0.026,-6.383 c 0,-0.278 0.226,-0.503 0.503,-0.503 0.278,0 0.504,0.226 0.504,0.504 l -0.01,2.061 c 0,0.1 0.032,0.156 0.124,0.219 l 2.681,1.728 c 0.153,0.096 0.24,0.243 0.24,0.403 0,0.16 -0.087,0.307 -0.24,0.403 z m -14.547,30.21 c -0.277,0 -0.503,0.226 -0.503,0.503 0,0.278 0.226,0.503 0.503,0.503 h 0.639 c 0.102,0 0.146,0.044 0.146,0.146 v 4.861 c 0,0.101 -0.044,0.145 -0.146,0.145 h -0.639 c -0.277,0 -0.503,0.226 -0.503,0.504 0,0.277 0.226,0.502 0.503,0.502 h 2.412 c 0.278,0 0.503,-0.225 0.503,-0.502 0,-0.278 -0.225,-0.504 -0.503,-0.504 h -0.476 c -0.102,0 -0.146,-0.044 -0.146,-0.145 v -4.861 c 0,-0.102 0.044,-0.146 0.146,-0.146 h 0.476 c 0.278,0 0.503,-0.225 0.503,-0.503 0,-0.277 -0.225,-0.503 -0.503,-0.503 z m 18.622,93.137 c 0.057,-0.152 0.033,-0.332 -0.063,-0.471 -0.093,-0.134 -0.24,-0.211 -0.404,-0.211 -0.214,0 -0.411,0.14 -0.471,0.332 l -0.342,1.088 c -0.019,0.07 -0.075,0.128 -0.106,0.128 h -0.765 c -0.011,0 -0.037,-0.035 -0.037,-0.082 v -5.617 c 0,-0.277 -0.226,-0.503 -0.503,-0.503 -0.278,0 -0.504,0.226 -0.504,0.503 v 5.617 c 0,0.047 -0.026,0.082 -0.037,0.082 h -0.756 c -0.015,-0.002 -0.057,-0.049 -0.078,-0.118 l -0.296,-1.164 c -0.061,-0.235 -0.258,-0.392 -0.49,-0.392 -0.159,0 -0.306,0.075 -0.404,0.206 -0.094,0.125 -0.126,0.282 -0.085,0.422 l 0.486,1.665 c 0.075,0.24 0.269,0.388 0.507,0.388 h 3.286 c 0.223,0 0.417,-0.138 0.495,-0.352 z m -14.158,33.567 c 0,-0.078 -0.03,-0.208 -0.116,-0.319 l -0.792,-1 c -0.107,-0.145 -0.268,-0.227 -0.45,-0.227 l -2.745,-0.019 c -0.144,0 -0.275,0.054 -0.369,0.152 -0.093,0.097 -0.141,0.226 -0.135,0.366 l 0.234,6.238 c 0.012,0.27 0.238,0.489 0.503,0.489 0.138,0 0.272,-0.057 0.367,-0.157 0.094,-0.098 0.142,-0.226 0.136,-0.36 l -0.197,-5.571 c -0.002,-0.036 0.002,-0.081 0.03,-0.112 0.03,-0.031 0.079,-0.038 0.114,-0.038 l 1.826,0.017 c 0.025,0 0.027,0 0.05,0.028 l 0.637,0.816 c 0.103,0.127 0.253,0.201 0.404,0.201 0.278,0 0.503,-0.226 0.503,-0.504 m 14.311,42.245 -0.045,-3.891 c 0,-0.097 -0.012,-0.245 -0.115,-0.387 l -1.754,-2.466 c -0.099,-0.137 -0.234,-0.215 -0.38,-0.219 -0.005,-0.001 -0.008,-0.001 -0.013,-0.001 -0.141,0 -0.28,0.071 -0.382,0.196 l -1.999,2.43 c -0.1,0.121 -0.145,0.245 -0.145,0.404 l -0.045,3.878 c 0,0.279 0.225,0.505 0.503,0.505 0.278,0 0.504,-0.226 0.504,-0.503 l 0.045,-3.654 c 0,-0.041 0.007,-0.088 0.063,-0.159 l 1.322,-1.664 c 0.032,-0.038 0.059,-0.057 0.089,-0.059 0.025,10e-4 0.059,0.028 0.09,0.071 l 1.143,1.638 c 0.057,0.079 0.067,0.124 0.067,0.19 l 0.045,3.692 c 0,0.276 0.226,0.502 0.503,0.502 0.278,0 0.504,-0.226 0.504,-0.503 m -13.15,40.439 0.207,-6.316 c 0,-0.282 -0.225,-0.507 -0.503,-0.507 -0.277,0 -0.502,0.225 -0.502,0.503 l -0.163,4.903 c -0.002,0.076 -0.024,0.103 -0.028,0.106 -0.004,0.002 -0.042,-0.001 -0.102,-0.059 l -1.313,-1.303 c -0.19,-0.189 -0.486,-0.191 -0.687,-0.002 l -1.548,1.449 c -0.055,0.053 -0.093,0.057 -0.095,0.053 -0.004,-0.002 -0.027,-0.028 -0.027,-0.106 l 0.008,-5.032 c 0,-0.277 -0.225,-0.503 -0.503,-0.503 -0.277,0 -0.503,0.226 -0.503,0.503 l -0.009,6.428 c 0,0.208 0.104,0.382 0.272,0.454 0.168,0.069 0.362,0.027 0.507,-0.112 l 2.125,-2.043 c 0.028,-0.029 0.068,-0.06 0.11,-0.06 0.028,0.001 0.075,0.03 0.099,0.054 l 1.856,1.92 c 0.149,0.15 0.35,0.195 0.52,0.127 0.172,-0.072 0.279,-0.247 0.279,-0.457 m -13.519,24.486 h 2.834 v -2.834 h -2.834 z m 27.887,-188.48 v 1.994 h 1.864 c 0,-1.211 -0.708,-1.994 -1.864,-1.994 m -3.724,1.994 h 1.865 v -1.994 c -1.157,0 -1.865,0.783 -1.865,1.994 m -6.516,0 h 1.865 v -1.994 c -1.157,0 -1.865,0.783 -1.865,1.994 m -2.793,-1.994 v 1.994 h 1.865 c 0,-1.211 -0.708,-1.994 -1.865,-1.994 m -6.516,0 v 1.994 h 1.865 c 0,-1.211 -0.708,-1.994 -1.865,-1.994 m -3.723,1.994 h 1.864 v -1.994 c -1.156,0 -1.864,0.783 -1.864,1.994 m 25.204,1.995 h -1.865 v 1.994 c 1.157,0 1.865,-0.716 1.865,-1.994 m -5.724,1.994 h 1.865 v -1.994 c -1.157,0 -1.865,0.783 -1.865,1.994 m 5.724,1.995 h -1.865 v 1.995 c 1.157,0 1.865,-0.716 1.865,-1.995 m -3.859,1.995 v -1.996 h -1.865 c 0,1.213 0.708,1.996 1.865,1.996 m -6.448,0 v -1.996 h -1.865 c 0,1.213 0.708,1.996 1.865,1.996 M 28.31,196.71 h -1.865 v 1.995 c 1.157,0 1.865,-0.716 1.865,-1.995 m -6.516,0 h -1.865 v 1.995 c 1.157,0 1.865,-0.716 1.865,-1.995 m -3.724,1.995 v -1.996 h -1.864 c 0,1.213 0.708,1.996 1.864,1.996 m 14.893,-8.951 c 0,0.543 0.399,0.952 0.931,0.952 0.532,0 0.93,-0.409 0.93,-0.952 0,-0.544 -0.398,-0.953 -0.93,-0.953 -0.532,0 -0.931,0.409 -0.931,0.953 m -10.239,0 c 0,0.543 0.399,0.952 0.93,0.952 0.532,0 0.931,-0.409 0.931,-0.952 0,-0.544 -0.399,-0.953 -0.931,-0.953 -0.531,0 -0.93,0.409 -0.93,0.953 m 10.239,3.989 c 0,0.544 0.399,0.952 0.931,0.952 0.532,0 0.93,-0.408 0.93,-0.952 0,-0.543 -0.398,-0.952 -0.93,-0.952 -0.532,0 -0.931,0.409 -0.931,0.952 m -3.723,0 c 0,0.544 0.399,0.952 0.93,0.952 0.532,0 0.931,-0.408 0.931,-0.952 0,-0.543 -0.399,-0.952 -0.931,-0.952 -0.531,0 -0.93,0.409 -0.93,0.952 m -2.793,0 c 0,0.544 0.399,0.952 0.93,0.952 0.532,0 0.931,-0.408 0.931,-0.952 0,-0.543 -0.399,-0.952 -0.931,-0.952 -0.531,0 -0.93,0.409 -0.93,0.952 m -3.723,0 c 0,0.544 0.399,0.952 0.93,0.952 0.532,0 0.931,-0.408 0.931,-0.952 0,-0.543 -0.399,-0.952 -0.931,-0.952 -0.531,0 -0.93,0.409 -0.93,0.952 m -2.793,0 c 0,0.544 0.399,0.952 0.931,0.952 0.532,0 0.93,-0.408 0.93,-0.952 0,-0.543 -0.398,-0.952 -0.93,-0.952 -0.532,0 -0.931,0.409 -0.931,0.952 m -3.723,0 c 0,0.544 0.398,0.952 0.93,0.952 0.532,0 0.931,-0.408 0.931,-0.952 0,-0.543 -0.399,-0.952 -0.931,-0.952 -0.532,0 -0.93,0.409 -0.93,0.952 m 16.755,3.989 c 0,0.544 0.399,0.953 0.931,0.953 0.532,0 0.93,-0.409 0.93,-0.953 0,-0.543 -0.398,-0.952 -0.93,-0.952 -0.532,0 -0.931,0.409 -0.931,0.952 m -10.239,0 c 0,0.544 0.399,0.953 0.93,0.953 0.532,0 0.931,-0.409 0.931,-0.953 0,-0.543 -0.399,-0.952 -0.931,-0.952 -0.531,0 -0.93,0.409 -0.93,0.952 m 6.049,129.253 c -2.033,0 -3.688,1.72 -3.688,3.834 0,2.114 1.655,3.833 3.688,3.833 2.033,0 3.686,-1.719 3.686,-3.833 0,-2.114 -1.653,-3.834 -3.686,-3.834 m 1,-120.084 V 309.53 c 0,3.827 2.14,7.294 5.498,9.13 4.276,2.338 7.188,6.907 7.188,12.159 0,7.628 -6.139,13.833 -13.686,13.833 -7.547,0 -13.688,-6.205 -13.688,-13.833 0,-5.252 2.913,-9.821 7.19,-12.159 3.358,-1.836 5.498,-5.303 5.498,-9.13 V 206.883 Z"
           style="fill:#1a1a1a;fill-opacity:1;fill-rule:nonzero;stroke:none"
           id="path45" />
      </g>
    </g>
  </g>
  <g
     inkscape:label="F.Mask"
     inkscape:groupmode="layer"
     id="g38039">
    <g
       id="g47"
       inkscape:label="f mask"
       style="display:inline;fill:#1a1a1a"
       transform="matrix(0.35263619,0,0,-0.35263619,-4.0563035,133.05006)">
      <g
         id="g49"
         clip-path="url(#clipPath53)"
         style="display:inline;fill:#1a1a1a">
        <path
           d="m 11.591,377.212 h 2.834 v -2.834 h -2.834 z m 17.182,-50.227 c -2.033,0 -3.688,1.72 -3.688,3.834 0,2.114 1.655,3.833 3.688,3.833 2.033,0 3.686,-1.719 3.686,-3.833 0,-2.114 -1.653,-3.834 -3.686,-3.834 m 1,-120.084 V 309.53 c 0,3.827 2.14,7.294 5.498,9.13 4.276,2.338 7.188,6.907 7.188,12.159 0,7.628 -6.139,13.833 -13.686,13.833 -7.547,0 -13.688,-6.205 -13.688,-13.833 0,-5.252 2.913,-9.821 7.19,-12.159 3.358,-1.836 5.498,-5.303 5.498,-9.13 V 206.883 Z m 9.705,-18.169 v 1.994 h 1.864 c 0,-1.211 -0.708,-1.994 -1.864,-1.994 m -3.724,1.994 h 1.865 v -1.994 c -1.157,0 -1.865,0.783 -1.865,1.994 m -6.516,0 h 1.865 v -1.994 c -1.157,0 -1.865,0.783 -1.865,1.994 m -2.793,-1.994 v 1.994 h 1.865 c 0,-1.211 -0.708,-1.994 -1.865,-1.994 m -6.516,0 v 1.994 h 1.865 c 0,-1.211 -0.708,-1.994 -1.865,-1.994 m -3.723,1.994 h 1.864 v -1.994 c -1.156,0 -1.864,0.783 -1.864,1.994 m 25.204,1.995 h -1.865 v 1.994 c 1.157,0 1.865,-0.716 1.865,-1.994 m -5.724,1.994 h 1.865 v -1.994 c -1.157,0 -1.865,0.783 -1.865,1.994 m 5.724,1.995 h -1.865 v 1.995 c 1.157,0 1.865,-0.716 1.865,-1.995 m -3.859,1.995 v -1.996 h -1.865 c 0,1.213 0.708,1.996 1.865,1.996 m -6.448,0 v -1.996 h -1.865 c 0,1.213 0.708,1.996 1.865,1.996 M 28.31,196.71 h -1.865 v 1.995 c 1.157,0 1.865,-0.716 1.865,-1.995 m -6.516,0 h -1.865 v 1.995 c 1.157,0 1.865,-0.716 1.865,-1.995 m -3.724,1.995 v -1.996 h -1.864 c 0,1.213 0.708,1.996 1.864,1.996 m 14.893,-8.951 c 0,0.543 0.399,0.952 0.931,0.952 0.532,0 0.93,-0.409 0.93,-0.952 0,-0.544 -0.398,-0.953 -0.93,-0.953 -0.532,0 -0.931,0.409 -0.931,0.953 m -10.239,0 c 0,0.543 0.399,0.952 0.93,0.952 0.532,0 0.931,-0.409 0.931,-0.952 0,-0.544 -0.399,-0.953 -0.931,-0.953 -0.531,0 -0.93,0.409 -0.93,0.953 m 10.239,3.989 c 0,0.544 0.399,0.952 0.931,0.952 0.532,0 0.93,-0.408 0.93,-0.952 0,-0.543 -0.398,-0.952 -0.93,-0.952 -0.532,0 -0.931,0.409 -0.931,0.952 m -3.723,0 c 0,0.544 0.399,0.952 0.93,0.952 0.532,0 0.931,-0.408 0.931,-0.952 0,-0.543 -0.399,-0.952 -0.931,-0.952 -0.531,0 -0.93,0.409 -0.93,0.952 m -2.793,0 c 0,0.544 0.399,0.952 0.93,0.952 0.532,0 0.931,-0.408 0.931,-0.952 0,-0.543 -0.399,-0.952 -0.931,-0.952 -0.531,0 -0.93,0.409 -0.93,0.952 m -3.723,0 c 0,0.544 0.399,0.952 0.93,0.952 0.532,0 0.931,-0.408 0.931,-0.952 0,-0.543 -0.399,-0.952 -0.931,-0.952 -0.531,0 -0.93,0.409 -0.93,0.952 m -2.793,0 c 0,0.544 0.399,0.952 0.931,0.952 0.532,0 0.93,-0.408 0.93,-0.952 0,-0.543 -0.398,-0.952 -0.93,-0.952 -0.532,0 -0.931,0.409 -0.931,0.952 m -3.723,0 c 0,0.544 0.398,0.952 0.93,0.952 0.532,0 0.931,-0.408 0.931,-0.952 0,-0.543 -0.399,-0.952 -0.931,-0.952 -0.532,0 -0.93,0.409 -0.93,0.952 m 16.755,3.989 c 0,0.544 0.399,0.953 0.931,0.953 0.532,0 0.93,-0.409 0.93,-0.953 0,-0.543 -0.398,-0.952 -0.93,-0.952 -0.532,0 -0.931,0.409 -0.931,0.952 m -10.239,0 c 0,0.544 0.399,0.953 0.93,0.953 0.532,0 0.931,-0.409 0.931,-0.953 0,-0.543 -0.399,-0.952 -0.931,-0.952 -0.531,0 -0.93,0.409 -0.93,0.952 m 6.049,-32.747 c -2.033,0 -3.688,1.72 -3.688,3.834 0,2.114 1.655,3.833 3.688,3.833 2.033,0 3.686,-1.719 3.686,-3.833 0,-2.114 -1.653,-3.834 -3.686,-3.834 m 1,-120.084 V 147.53 c 0,3.827 2.14,7.294 5.498,9.129 4.276,2.339 7.188,6.908 7.188,12.16 0,7.628 -6.139,13.833 -13.686,13.833 -7.547,0 -13.688,-6.205 -13.688,-13.833 0,-5.252 2.913,-9.821 7.19,-12.16 3.358,-1.835 5.498,-5.302 5.498,-9.129 V 44.883 Z"
           style="fill:#1a1a1a;fill-opacity:1;fill-rule:nonzero;stroke:none"
           id="path55" />
      </g>
    </g>
  </g>
  <g
     inkscape:label="F.SilkS"
     inkscape:groupmode="layer"
     id="g38041">
    <g
       id="g57"
       inkscape:label="f silk"
       style="display:inline;fill:#1a1a1a"
       transform="matrix(0.35263619,0,0,-0.35263619,-4.0563035,133.05006)">
      <g
         id="g59"
         clip-path="url(#clipPath63)"
         style="display:inline;fill:#1a1a1a">
        <path
           d="m 11.591,374.378 h 2.834 v 2.834 H 11.591 Z M 37.645,189.733 c 0,0.544 0.398,0.953 0.93,0.953 0.532,0 0.93,-0.409 0.93,-0.953 0,-0.543 -0.398,-0.952 -0.93,-0.952 -0.532,0 -0.93,0.409 -0.93,0.952 m -6.517,0 c 0,0.544 0.399,0.953 0.931,0.953 0.532,0 0.931,-0.409 0.931,-0.953 0,-0.543 -0.399,-0.952 -0.931,-0.952 -0.532,0 -0.931,0.409 -0.931,0.952 m -6.516,0 c 0,0.544 0.399,0.953 0.931,0.953 0.532,0 0.931,-0.409 0.931,-0.953 0,-0.543 -0.399,-0.952 -0.931,-0.952 -0.532,0 -0.931,0.409 -0.931,0.952 m -6.516,0 c 0,0.544 0.399,0.953 0.931,0.953 0.532,0 0.931,-0.409 0.931,-0.953 0,-0.543 -0.399,-0.952 -0.931,-0.952 -0.532,0 -0.931,0.409 -0.931,0.952 m 21.41,1.995 c 0,0.543 0.399,0.952 0.931,0.952 0.532,0 0.93,-0.409 0.93,-0.952 0,-0.543 -0.398,-0.952 -0.93,-0.952 -0.532,0 -0.931,0.409 -0.931,0.952 m -10.239,0 c 0,0.543 0.399,0.952 0.93,0.952 0.532,0 0.931,-0.409 0.931,-0.952 0,-0.543 -0.399,-0.952 -0.931,-0.952 -0.531,0 -0.93,0.409 -0.93,0.952 m -2.793,0 c 0,0.543 0.399,0.952 0.931,0.952 0.532,0 0.93,-0.409 0.93,-0.952 0,-0.543 -0.398,-0.952 -0.93,-0.952 -0.532,0 -0.931,0.409 -0.931,0.952 m -3.724,0 c 0,0.543 0.399,0.952 0.931,0.952 0.532,0 0.931,-0.409 0.931,-0.952 0,-0.543 -0.399,-0.952 -0.931,-0.952 -0.532,0 -0.931,0.409 -0.931,0.952 m -2.792,0 c 0,0.543 0.399,0.952 0.931,0.952 0.531,0 0.93,-0.409 0.93,-0.952 0,-0.543 -0.399,-0.952 -0.93,-0.952 -0.532,0 -0.931,0.409 -0.931,0.952 m -3.724,0 c 0,0.543 0.399,0.952 0.931,0.952 0.532,0 0.931,-0.409 0.931,-0.952 0,-0.543 -0.399,-0.952 -0.931,-0.952 -0.532,0 -0.931,0.409 -0.931,0.952 m 14.894,1.995 c 0,0.543 0.399,0.952 0.931,0.952 0.532,0 0.931,-0.409 0.931,-0.952 0,-0.544 -0.399,-0.952 -0.931,-0.952 -0.532,0 -0.931,0.408 -0.931,0.952 m -1.861,1.995 c 0,0.543 0.399,0.952 0.93,0.952 0.532,0 0.931,-0.409 0.931,-0.952 0,-0.544 -0.399,-0.953 -0.931,-0.953 -0.531,0 -0.93,0.409 -0.93,0.953 m -2.793,0 c 0,0.543 0.399,0.952 0.931,0.952 0.532,0 0.93,-0.409 0.93,-0.952 0,-0.544 -0.398,-0.953 -0.93,-0.953 -0.532,0 -0.931,0.409 -0.931,0.953 m -3.724,0 c 0,0.543 0.399,0.952 0.931,0.952 0.532,0 0.931,-0.409 0.931,-0.952 0,-0.544 -0.399,-0.953 -0.931,-0.953 -0.532,0 -0.931,0.409 -0.931,0.953 m -2.792,0 c 0,0.543 0.399,0.952 0.931,0.952 0.531,0 0.93,-0.409 0.93,-0.952 0,-0.544 -0.399,-0.953 -0.93,-0.953 -0.532,0 -0.931,0.409 -0.931,0.953 m -3.724,0 c 0,0.543 0.399,0.952 0.931,0.952 0.532,0 0.931,-0.409 0.931,-0.952 0,-0.544 -0.399,-0.953 -0.931,-0.953 -0.532,0 -0.931,0.409 -0.931,0.953 m 19.493,-0.039 c 0,0.543 0.399,0.952 0.93,0.952 0.532,0 0.931,-0.409 0.931,-0.952 0,-0.544 -0.399,-0.953 -0.931,-0.953 -0.531,0 -0.93,0.409 -0.93,0.953 m 1.918,-2.023 c 0,0.544 0.398,0.952 0.93,0.952 0.532,0 0.93,-0.408 0.93,-0.952 0,-0.543 -0.398,-0.952 -0.93,-0.952 -0.532,0 -0.93,0.409 -0.93,0.952 m 0,4.056 c 0,0.544 0.398,0.953 0.93,0.953 0.532,0 0.93,-0.409 0.93,-0.953 0,-0.543 -0.398,-0.952 -0.93,-0.952 -0.532,0 -0.93,0.409 -0.93,0.952 m -6.517,0 c 0,0.544 0.399,0.953 0.931,0.953 0.532,0 0.931,-0.409 0.931,-0.953 0,-0.543 -0.399,-0.952 -0.931,-0.952 -0.532,0 -0.931,0.409 -0.931,0.952 m -6.516,0 c 0,0.544 0.399,0.953 0.931,0.953 0.532,0 0.931,-0.409 0.931,-0.953 0,-0.543 -0.399,-0.952 -0.931,-0.952 -0.532,0 -0.931,0.409 -0.931,0.952 m -6.516,0 c 0,0.544 0.399,0.953 0.931,0.953 0.532,0 0.931,-0.409 0.931,-0.953 0,-0.543 -0.399,-0.952 -0.931,-0.952 -0.532,0 -0.931,0.409 -0.931,0.952"
           style="fill:#1a1a1a;fill-opacity:1;fill-rule:nonzero;stroke:none"
           id="path65" />
      </g>
    </g>
  </g>
  <g
     inkscape:label="Dwgs.User"
     inkscape:groupmode="layer"
     id="g38043" />
  <g
     inkscape:label="Drill"
     inkscape:groupmode="layer"
     id="g38045" />
</svg>
