999
"DXF R12 Output" (www.mydxf.blogspot.com)
 0 
SECTION
 2 
HEADER
 9 
$ACADVER
 1 
AC1009
 9 
$EXTMIN
 10 
 0 
 20 
 0 
 9 
$EXTMAX
 10 
 8.5 
 20 
 11 
 0 
ENDSEC
 0 
SECTION
 2 
ENTITIES
0
LINE
8
Layer 1
10
9.696110
20
18.664200
11
10.696200
21
18.664200
0
LINE
8
Layer 1
10
10.196000
20
19.164100
11
10.196000
21
18.164300
0
LINE
8
Layer 1
10
10.196000
20
21.780620
11
9.003229
21
21.535715
0
LINE
8
Layer 1
10
9.003229
20
21.535715
11
8.029105
21
20.867852
0
LINE
8
Layer 1
10
8.029105
20
20.867852
11
7.372284
21
19.877269
0
LINE
8
Layer 1
10
7.372284
20
19.877269
11
7.131420
21
18.664200
0
LINE
8
Layer 1
10
7.131420
20
18.664200
11
7.372284
21
17.451329
0
LINE
8
Layer 1
10
7.372284
20
17.451329
11
8.029104
21
16.460841
0
LINE
8
Layer 1
10
8.029104
20
16.460841
11
9.003225
21
15.793013
0
LINE
8
Layer 1
10
9.003225
20
15.793013
11
10.195990
21
15.548120
0
LINE
8
Layer 1
10
10.195990
20
15.548120
11
11.388903
21
15.793013
0
LINE
8
Layer 1
10
11.388903
20
15.793013
11
12.363007
21
16.460841
0
LINE
8
Layer 1
10
12.363007
20
16.460841
11
13.019746
21
17.451329
0
LINE
8
Layer 1
10
13.019746
20
17.451329
11
13.260560
21
18.664200
0
LINE
8
Layer 1
10
13.260560
20
18.664200
11
13.019746
21
19.877273
0
LINE
8
Layer 1
10
13.019746
20
19.877273
11
12.363007
21
20.867865
0
LINE
8
Layer 1
10
12.363007
20
20.867865
11
11.388903
21
21.535732
0
LINE
8
Layer 1
10
11.388903
20
21.535732
11
10.195990
21
21.780630
0
LINE
8
Layer 1
10
10.195990
20
21.780630
11
10.196000
21
21.780620
0
LINE
8
Layer 1
10
9.696110
20
32.641600
11
10.696200
21
32.641600
0
LINE
8
Layer 1
10
10.195962
20
33.141838
11
10.196000
21
32.141700
0
LINE
8
Layer 1
10
10.196000
20
35.758020
11
9.003235
21
35.513122
0
LINE
8
Layer 1
10
9.003235
20
35.513122
11
8.029114
21
34.845255
0
LINE
8
Layer 1
10
8.029114
20
34.845255
11
7.372294
21
33.854663
0
LINE
8
Layer 1
10
7.372294
20
33.854663
11
7.131430
21
32.641590
0
LINE
8
Layer 1
10
7.131430
20
32.641590
11
7.372294
21
31.428719
0
LINE
8
Layer 1
10
7.372294
20
31.428719
11
8.029114
21
30.438231
0
LINE
8
Layer 1
10
8.029114
20
30.438231
11
9.003235
21
29.770403
0
LINE
8
Layer 1
10
9.003235
20
29.770403
11
10.196000
21
29.525510
0
LINE
8
Layer 1
10
10.196000
20
29.525510
11
11.388913
21
29.770403
0
LINE
8
Layer 1
10
11.388913
20
29.770403
11
12.363017
21
30.438231
0
LINE
8
Layer 1
10
12.363017
20
30.438231
11
13.019756
21
31.428719
0
LINE
8
Layer 1
10
13.019756
20
31.428719
11
13.260570
21
32.641590
0
LINE
8
Layer 1
10
13.260570
20
32.641590
11
13.019756
21
33.854663
0
LINE
8
Layer 1
10
13.019756
20
33.854663
11
12.363017
21
34.845255
0
LINE
8
Layer 1
10
12.363017
20
34.845255
11
11.388913
21
35.513122
0
LINE
8
Layer 1
10
11.388913
20
35.513122
11
10.196000
21
35.758020
0
LINE
8
Layer 1
10
10.196000
20
35.758020
11
10.196000
21
35.758020
0
LINE
8
Layer 1
10
13.260570
20
32.641590
11
13.019756
21
31.428719
0
LINE
8
Layer 1
10
13.019756
20
31.428719
11
12.363017
21
30.438231
0
LINE
8
Layer 1
10
12.363017
20
30.438231
11
11.388913
21
29.770403
0
LINE
8
Layer 1
10
11.388913
20
29.770403
11
10.196000
21
29.525510
0
LINE
8
Layer 1
10
10.196000
20
29.525510
11
9.003235
21
29.770403
0
LINE
8
Layer 1
10
9.003235
20
29.770403
11
8.029114
21
30.438231
0
LINE
8
Layer 1
10
8.029114
20
30.438231
11
7.372294
21
31.428719
0
LINE
8
Layer 1
10
7.372294
20
31.428719
11
7.131430
21
32.641590
0
LINE
8
Layer 1
10
7.131430
20
32.641590
11
7.372294
21
33.854663
0
LINE
8
Layer 1
10
7.372294
20
33.854663
11
8.029114
21
34.845255
0
LINE
8
Layer 1
10
8.029114
20
34.845255
11
9.003235
21
35.513122
0
LINE
8
Layer 1
10
9.003235
20
35.513122
11
10.196000
21
35.758020
0
LINE
8
Layer 1
10
10.196000
20
35.758020
11
11.388913
21
35.513122
0
LINE
8
Layer 1
10
11.388913
20
35.513122
11
12.363017
21
34.845255
0
LINE
8
Layer 1
10
12.363017
20
34.845255
11
13.019756
21
33.854663
0
LINE
8
Layer 1
10
13.019756
20
33.854663
11
13.260570
21
32.641590
0
LINE
8
Layer 1
10
13.260570
20
32.641590
11
13.260570
21
32.641590
0
LINE
8
Layer 1
10
13.260570
20
32.641590
11
13.019756
21
31.428719
0
LINE
8
Layer 1
10
13.019756
20
31.428719
11
12.363017
21
30.438231
0
LINE
8
Layer 1
10
12.363017
20
30.438231
11
11.388913
21
29.770403
0
LINE
8
Layer 1
10
11.388913
20
29.770403
11
10.196000
21
29.525510
0
LINE
8
Layer 1
10
10.196000
20
29.525510
11
9.003235
21
29.770403
0
LINE
8
Layer 1
10
9.003235
20
29.770403
11
8.029114
21
30.438231
0
LINE
8
Layer 1
10
8.029114
20
30.438231
11
7.372294
21
31.428719
0
LINE
8
Layer 1
10
7.372294
20
31.428719
11
7.131430
21
32.641590
0
LINE
8
Layer 1
10
7.131430
20
32.641590
11
7.372294
21
33.854663
0
LINE
8
Layer 1
10
7.372294
20
33.854663
11
8.029114
21
34.845255
0
LINE
8
Layer 1
10
8.029114
20
34.845255
11
9.003235
21
35.513122
0
LINE
8
Layer 1
10
9.003235
20
35.513122
11
10.196000
21
35.758020
0
LINE
8
Layer 1
10
10.196000
20
35.758020
11
11.388913
21
35.513122
0
LINE
8
Layer 1
10
11.388913
20
35.513122
11
12.363017
21
34.845255
0
LINE
8
Layer 1
10
12.363017
20
34.845255
11
13.019756
21
33.854663
0
LINE
8
Layer 1
10
13.019756
20
33.854663
11
13.260570
21
32.641590
0
LINE
8
Layer 1
10
13.260570
20
32.641590
11
13.260570
21
32.641590
0
LINE
8
Layer 1
10
9.696110
20
116.798000
11
10.696200
21
116.798000
0
LINE
8
Layer 1
10
10.195962
20
117.298238
11
10.196000
21
116.298000
0
LINE
8
Layer 1
10
10.196000
20
119.914320
11
9.003235
21
119.669422
0
LINE
8
Layer 1
10
9.003235
20
119.669422
11
8.029114
21
119.001555
0
LINE
8
Layer 1
10
8.029114
20
119.001555
11
7.372294
21
118.010963
0
LINE
8
Layer 1
10
7.372294
20
118.010963
11
7.131430
21
116.797890
0
LINE
8
Layer 1
10
7.131430
20
116.797890
11
7.372294
21
115.584871
0
LINE
8
Layer 1
10
7.372294
20
115.584871
11
8.029114
21
114.594400
0
LINE
8
Layer 1
10
8.029114
20
114.594400
11
9.003235
21
113.926654
0
LINE
8
Layer 1
10
9.003235
20
113.926654
11
10.196000
21
113.681810
0
LINE
8
Layer 1
10
10.196000
20
113.681810
11
11.388913
21
113.926654
0
LINE
8
Layer 1
10
11.388913
20
113.926654
11
12.363017
21
114.594400
0
LINE
8
Layer 1
10
12.363017
20
114.594400
11
13.019756
21
115.584871
0
LINE
8
Layer 1
10
13.019756
20
115.584871
11
13.260570
21
116.797890
0
LINE
8
Layer 1
10
13.260570
20
116.797890
11
13.019756
21
118.010963
0
LINE
8
Layer 1
10
13.019756
20
118.010963
11
12.363017
21
119.001555
0
LINE
8
Layer 1
10
12.363017
20
119.001555
11
11.388913
21
119.669422
0
LINE
8
Layer 1
10
11.388913
20
119.669422
11
10.196000
21
119.914320
0
LINE
8
Layer 1
10
10.196000
20
119.914320
11
10.196000
21
119.914320
0
LINE
8
Layer 1
10
9.696110
20
103.119000
11
10.696200
21
103.119000
0
LINE
8
Layer 1
10
10.195962
20
103.618885
11
10.196000
21
102.619000
0
LINE
8
Layer 1
10
10.196000
20
106.235320
11
9.003235
21
105.990427
0
LINE
8
Layer 1
10
9.003235
20
105.990427
11
8.029114
21
105.322599
0
LINE
8
Layer 1
10
8.029114
20
105.322599
11
7.372294
21
104.332111
0
LINE
8
Layer 1
10
7.372294
20
104.332111
11
7.131430
21
103.119240
0
LINE
8
Layer 1
10
7.131430
20
103.119240
11
7.372294
21
101.906167
0
LINE
8
Layer 1
10
7.372294
20
101.906167
11
8.029114
21
100.915575
0
LINE
8
Layer 1
10
8.029114
20
100.915575
11
9.003235
21
100.247708
0
LINE
8
Layer 1
10
9.003235
20
100.247708
11
10.196000
21
100.002810
0
LINE
8
Layer 1
10
10.196000
20
100.002810
11
11.388913
21
100.247708
0
LINE
8
Layer 1
10
11.388913
20
100.247708
11
12.363017
21
100.915575
0
LINE
8
Layer 1
10
12.363017
20
100.915575
11
13.019756
21
101.906167
0
LINE
8
Layer 1
10
13.019756
20
101.906167
11
13.260570
21
103.119240
0
LINE
8
Layer 1
10
13.260570
20
103.119240
11
13.019756
21
104.332111
0
LINE
8
Layer 1
10
13.019756
20
104.332111
11
12.363017
21
105.322599
0
LINE
8
Layer 1
10
12.363017
20
105.322599
11
11.388913
21
105.990427
0
LINE
8
Layer 1
10
11.388913
20
105.990427
11
10.196000
21
106.235320
0
LINE
8
Layer 1
10
10.196000
20
106.235320
11
10.196000
21
106.235320
0
LINE
8
Layer 1
10
9.696110
20
89.623200
11
10.696200
21
89.623200
0
LINE
8
Layer 1
10
10.195962
20
90.123085
11
10.196000
21
89.123300
0
LINE
8
Layer 1
10
10.196000
20
92.739260
11
9.003235
21
92.494367
0
LINE
8
Layer 1
10
9.003235
20
92.494367
11
8.029114
21
91.826539
0
LINE
8
Layer 1
10
8.029114
20
91.826539
11
7.372294
21
90.836051
0
LINE
8
Layer 1
10
7.372294
20
90.836051
11
7.131430
21
89.623180
0
LINE
8
Layer 1
10
7.131430
20
89.623180
11
7.372294
21
88.410107
0
LINE
8
Layer 1
10
7.372294
20
88.410107
11
8.029114
21
87.419515
0
LINE
8
Layer 1
10
8.029114
20
87.419515
11
9.003235
21
86.751648
0
LINE
8
Layer 1
10
9.003235
20
86.751648
11
10.196000
21
86.506750
0
LINE
8
Layer 1
10
10.196000
20
86.506750
11
11.388913
21
86.751648
0
LINE
8
Layer 1
10
11.388913
20
86.751648
11
12.363017
21
87.419515
0
LINE
8
Layer 1
10
12.363017
20
87.419515
11
13.019756
21
88.410107
0
LINE
8
Layer 1
10
13.019756
20
88.410107
11
13.260570
21
89.623180
0
LINE
8
Layer 1
10
13.260570
20
89.623180
11
13.019756
21
90.836051
0
LINE
8
Layer 1
10
13.019756
20
90.836051
11
12.363017
21
91.826539
0
LINE
8
Layer 1
10
12.363017
20
91.826539
11
11.388913
21
92.494367
0
LINE
8
Layer 1
10
11.388913
20
92.494367
11
10.196000
21
92.739260
0
LINE
8
Layer 1
10
10.196000
20
92.739260
11
10.196000
21
92.739260
0
LINE
8
Layer 1
10
9.696110
20
75.880700
11
10.696200
21
75.880700
0
LINE
8
Layer 1
10
10.195962
20
76.380585
11
10.196000
21
75.380500
0
LINE
8
Layer 1
10
10.196000
20
78.996820
11
9.003235
21
78.751927
0
LINE
8
Layer 1
10
9.003235
20
78.751927
11
8.029114
21
78.084099
0
LINE
8
Layer 1
10
8.029114
20
78.084099
11
7.372294
21
77.093611
0
LINE
8
Layer 1
10
7.372294
20
77.093611
11
7.131430
21
75.880740
0
LINE
8
Layer 1
10
7.131430
20
75.880740
11
7.372294
21
74.667667
0
LINE
8
Layer 1
10
7.372294
20
74.667667
11
8.029114
21
73.677075
0
LINE
8
Layer 1
10
8.029114
20
73.677075
11
9.003235
21
73.009208
0
LINE
8
Layer 1
10
9.003235
20
73.009208
11
10.196000
21
72.764310
0
LINE
8
Layer 1
10
10.196000
20
72.764310
11
11.388913
21
73.009208
0
LINE
8
Layer 1
10
11.388913
20
73.009208
11
12.363017
21
73.677075
0
LINE
8
Layer 1
10
12.363017
20
73.677075
11
13.019756
21
74.667667
0
LINE
8
Layer 1
10
13.019756
20
74.667667
11
13.260570
21
75.880740
0
LINE
8
Layer 1
10
13.260570
20
75.880740
11
13.019756
21
77.093611
0
LINE
8
Layer 1
10
13.019756
20
77.093611
11
12.363017
21
78.084099
0
LINE
8
Layer 1
10
12.363017
20
78.084099
11
11.388913
21
78.751927
0
LINE
8
Layer 1
10
11.388913
20
78.751927
11
10.196000
21
78.996820
0
LINE
8
Layer 1
10
10.196000
20
78.996820
11
10.196000
21
78.996820
0
LINE
8
Layer 1
10
9.696110
20
59.647700
11
10.696200
21
59.647700
0
LINE
8
Layer 1
10
10.195962
20
60.147585
11
10.196000
21
59.147800
0
LINE
8
Layer 1
10
10.196000
20
62.764120
11
9.003235
21
62.519222
0
LINE
8
Layer 1
10
9.003235
20
62.519222
11
8.029114
21
61.851355
0
LINE
8
Layer 1
10
8.029114
20
61.851355
11
7.372294
21
60.860763
0
LINE
8
Layer 1
10
7.372294
20
60.860763
11
7.131430
21
59.647690
0
LINE
8
Layer 1
10
7.131430
20
59.647690
11
7.372294
21
58.434671
0
LINE
8
Layer 1
10
7.372294
20
58.434671
11
8.029114
21
57.444200
0
LINE
8
Layer 1
10
8.029114
20
57.444200
11
9.003235
21
56.776454
0
LINE
8
Layer 1
10
9.003235
20
56.776454
11
10.196000
21
56.531610
0
LINE
8
Layer 1
10
10.196000
20
56.531610
11
11.388913
21
56.776454
0
LINE
8
Layer 1
10
11.388913
20
56.776454
11
12.363017
21
57.444200
0
LINE
8
Layer 1
10
12.363017
20
57.444200
11
13.019756
21
58.434671
0
LINE
8
Layer 1
10
13.019756
20
58.434671
11
13.260570
21
59.647690
0
LINE
8
Layer 1
10
13.260570
20
59.647690
11
13.019756
21
60.860763
0
LINE
8
Layer 1
10
13.019756
20
60.860763
11
12.363017
21
61.851355
0
LINE
8
Layer 1
10
12.363017
20
61.851355
11
11.388913
21
62.519222
0
LINE
8
Layer 1
10
11.388913
20
62.519222
11
10.196000
21
62.764120
0
LINE
8
Layer 1
10
10.196000
20
62.764120
11
10.196000
21
62.764120
0
LINE
8
Layer 1
10
9.696110
20
46.064700
11
10.696200
21
46.064700
0
LINE
8
Layer 1
10
10.195962
20
46.564585
11
10.196000
21
45.564900
0
LINE
8
Layer 1
10
10.196000
20
49.181220
11
9.003235
21
48.936322
0
LINE
8
Layer 1
10
9.003235
20
48.936322
11
8.029114
21
48.268455
0
LINE
8
Layer 1
10
8.029114
20
48.268455
11
7.372294
21
47.277863
0
LINE
8
Layer 1
10
7.372294
20
47.277863
11
7.131430
21
46.064790
0
LINE
8
Layer 1
10
7.131430
20
46.064790
11
7.372294
21
44.851717
0
LINE
8
Layer 1
10
7.372294
20
44.851717
11
8.029114
21
43.861125
0
LINE
8
Layer 1
10
8.029114
20
43.861125
11
9.003235
21
43.193258
0
LINE
8
Layer 1
10
9.003235
20
43.193258
11
10.196000
21
42.948360
0
LINE
8
Layer 1
10
10.196000
20
42.948360
11
11.388913
21
43.193258
0
LINE
8
Layer 1
10
11.388913
20
43.193258
11
12.363017
21
43.861125
0
LINE
8
Layer 1
10
12.363017
20
43.861125
11
13.019756
21
44.851717
0
LINE
8
Layer 1
10
13.019756
20
44.851717
11
13.260570
21
46.064790
0
LINE
8
Layer 1
10
13.260570
20
46.064790
11
13.019756
21
47.277863
0
LINE
8
Layer 1
10
13.019756
20
47.277863
11
12.363017
21
48.268455
0
LINE
8
Layer 1
10
12.363017
20
48.268455
11
11.388913
21
48.936322
0
LINE
8
Layer 1
10
11.388913
20
48.936322
11
10.196000
21
49.181220
0
LINE
8
Layer 1
10
10.196000
20
49.181220
11
10.196000
21
49.181220
0
LINE
8
Layer 1
10
9.039240
20
8.635810
11
11.339000
21
8.635810
0
LINE
8
Layer 1
10
11.339000
20
8.635810
11
11.962627
21
8.510596
0
LINE
8
Layer 1
10
11.962627
20
8.510596
11
12.470929
21
8.168556
0
LINE
8
Layer 1
10
12.470929
20
8.168556
11
12.813139
21
7.660093
0
LINE
8
Layer 1
10
12.813139
20
7.660093
11
12.938490
21
7.035610
0
LINE
8
Layer 1
10
12.938490
20
7.035610
11
12.813138
21
6.411928
0
LINE
8
Layer 1
10
12.813138
20
6.411928
11
12.470928
21
5.903506
0
LINE
8
Layer 1
10
12.470928
20
5.903506
11
11.962626
21
5.561176
0
LINE
8
Layer 1
10
11.962626
20
5.561176
11
11.339000
21
5.435770
0
LINE
8
Layer 1
10
11.339000
20
5.435770
11
9.039240
21
5.435770
0
LINE
8
Layer 1
10
9.039240
20
5.435770
11
8.414814
21
5.561177
0
LINE
8
Layer 1
10
8.414814
20
5.561177
11
7.906475
21
5.903508
0
LINE
8
Layer 1
10
7.906475
20
5.903508
11
7.564558
21
6.411930
0
LINE
8
Layer 1
10
7.564558
20
6.411930
11
7.439400
21
7.035610
0
LINE
8
Layer 1
10
7.439400
20
7.035610
11
7.564559
21
7.660092
0
LINE
8
Layer 1
10
7.564559
20
7.660092
11
7.906476
21
8.168555
0
LINE
8
Layer 1
10
7.906476
20
8.168555
11
8.414816
21
8.510596
0
LINE
8
Layer 1
10
8.414816
20
8.510596
11
9.039240
21
8.635810
0
LINE
8
Layer 1
10
9.039240
20
8.635810
11
9.039240
21
8.635810
0
LINE
8
Layer 1
10
9.039240
20
130.624810
11
11.339000
21
130.625000
0
LINE
8
Layer 1
10
11.339000
20
130.625000
11
11.962627
21
130.499786
0
LINE
8
Layer 1
10
11.962627
20
130.499786
11
12.470929
21
130.157746
0
LINE
8
Layer 1
10
12.470929
20
130.157746
11
12.813139
21
129.649283
0
LINE
8
Layer 1
10
12.813139
20
129.649283
11
12.938490
21
129.024800
0
LINE
8
Layer 1
10
12.938490
20
129.024800
11
12.813138
21
128.401118
0
LINE
8
Layer 1
10
12.813138
20
128.401118
11
12.470928
21
127.892696
0
LINE
8
Layer 1
10
12.470928
20
127.892696
11
11.962626
21
127.550366
0
LINE
8
Layer 1
10
11.962626
20
127.550366
11
11.339000
21
127.424960
0
LINE
8
Layer 1
10
11.339000
20
127.424960
11
9.039240
21
127.425000
0
LINE
8
Layer 1
10
9.039240
20
127.425000
11
8.414814
21
127.550407
0
LINE
8
Layer 1
10
8.414814
20
127.550407
11
7.906475
21
127.892738
0
LINE
8
Layer 1
10
7.906475
20
127.892738
11
7.564558
21
128.401160
0
LINE
8
Layer 1
10
7.564558
20
128.401160
11
7.439400
21
129.024840
0
LINE
8
Layer 1
10
7.439400
20
129.024840
11
7.564559
21
129.649322
0
LINE
8
Layer 1
10
7.564559
20
129.649322
11
7.906476
21
130.157785
0
LINE
8
Layer 1
10
7.906476
20
130.157785
11
8.414816
21
130.499826
0
LINE
8
Layer 1
10
8.414816
20
130.499826
11
9.039240
21
130.625040
0
LINE
8
Layer 1
10
9.039240
20
130.625040
11
9.039240
21
130.624810
0
LINE
8
Layer 1
10
13.260600
20
18.664200
11
13.019786
21
17.451329
0
LINE
8
Layer 1
10
13.019786
20
17.451329
11
12.363048
21
16.460841
0
LINE
8
Layer 1
10
12.363048
20
16.460841
11
11.388943
21
15.793013
0
LINE
8
Layer 1
10
11.388943
20
15.793013
11
10.196030
21
15.548120
0
LINE
8
Layer 1
10
10.196030
20
15.548120
11
9.003265
21
15.793013
0
LINE
8
Layer 1
10
9.003265
20
15.793013
11
8.029144
21
16.460841
0
LINE
8
Layer 1
10
8.029144
20
16.460841
11
7.372324
21
17.451329
0
LINE
8
Layer 1
10
7.372324
20
17.451329
11
7.131460
21
18.664200
0
LINE
8
Layer 1
10
7.131460
20
18.664200
11
7.372324
21
19.877273
0
LINE
8
Layer 1
10
7.372324
20
19.877273
11
8.029144
21
20.867865
0
LINE
8
Layer 1
10
8.029144
20
20.867865
11
9.003265
21
21.535732
0
LINE
8
Layer 1
10
9.003265
20
21.535732
11
10.196030
21
21.780630
0
LINE
8
Layer 1
10
10.196030
20
21.780630
11
11.388943
21
21.535732
0
LINE
8
Layer 1
10
11.388943
20
21.535732
11
12.363048
21
20.867865
0
LINE
8
Layer 1
10
12.363048
20
20.867865
11
13.019786
21
19.877273
0
LINE
8
Layer 1
10
13.019786
20
19.877273
11
13.260600
21
18.664200
0
LINE
8
Layer 1
10
13.260600
20
18.664200
11
13.260600
21
18.664200
0
LINE
8
Layer 1
10
13.260600
20
32.641600
11
13.019786
21
31.428729
0
LINE
8
Layer 1
10
13.019786
20
31.428729
11
12.363048
21
30.438241
0
LINE
8
Layer 1
10
12.363048
20
30.438241
11
11.388943
21
29.770413
0
LINE
8
Layer 1
10
11.388943
20
29.770413
11
10.196030
21
29.525520
0
LINE
8
Layer 1
10
10.196030
20
29.525520
11
9.003265
21
29.770413
0
LINE
8
Layer 1
10
9.003265
20
29.770413
11
8.029144
21
30.438241
0
LINE
8
Layer 1
10
8.029144
20
30.438241
11
7.372324
21
31.428729
0
LINE
8
Layer 1
10
7.372324
20
31.428729
11
7.131460
21
32.641600
0
LINE
8
Layer 1
10
7.131460
20
32.641600
11
7.372324
21
33.854673
0
LINE
8
Layer 1
10
7.372324
20
33.854673
11
8.029144
21
34.845265
0
LINE
8
Layer 1
10
8.029144
20
34.845265
11
9.003265
21
35.513132
0
LINE
8
Layer 1
10
9.003265
20
35.513132
11
10.196030
21
35.758030
0
LINE
8
Layer 1
10
10.196030
20
35.758030
11
11.388943
21
35.513132
0
LINE
8
Layer 1
10
11.388943
20
35.513132
11
12.363048
21
34.845265
0
LINE
8
Layer 1
10
12.363048
20
34.845265
11
13.019786
21
33.854673
0
LINE
8
Layer 1
10
13.019786
20
33.854673
11
13.260600
21
32.641600
0
LINE
8
Layer 1
10
13.260600
20
32.641600
11
13.260600
21
32.641600
0
LINE
8
Layer 1
10
13.260600
20
59.634000
11
13.019786
21
58.420927
0
LINE
8
Layer 1
10
13.019786
20
58.420927
11
12.363048
21
57.430335
0
LINE
8
Layer 1
10
12.363048
20
57.430335
11
11.388943
21
56.762468
0
LINE
8
Layer 1
10
11.388943
20
56.762468
11
10.196030
21
56.517570
0
LINE
8
Layer 1
10
10.196030
20
56.517570
11
9.003265
21
56.762468
0
LINE
8
Layer 1
10
9.003265
20
56.762468
11
8.029144
21
57.430335
0
LINE
8
Layer 1
10
8.029144
20
57.430335
11
7.372324
21
58.420927
0
LINE
8
Layer 1
10
7.372324
20
58.420927
11
7.131460
21
59.634000
0
LINE
8
Layer 1
10
7.131460
20
59.634000
11
7.372324
21
60.847073
0
LINE
8
Layer 1
10
7.372324
20
60.847073
11
8.029144
21
61.837665
0
LINE
8
Layer 1
10
8.029144
20
61.837665
11
9.003265
21
62.505532
0
LINE
8
Layer 1
10
9.003265
20
62.505532
11
10.196030
21
62.750430
0
LINE
8
Layer 1
10
10.196030
20
62.750430
11
11.388943
21
62.505532
0
LINE
8
Layer 1
10
11.388943
20
62.505532
11
12.363048
21
61.837665
0
LINE
8
Layer 1
10
12.363048
20
61.837665
11
13.019786
21
60.847073
0
LINE
8
Layer 1
10
13.019786
20
60.847073
11
13.260600
21
59.634000
0
LINE
8
Layer 1
10
13.260600
20
59.634000
11
13.260600
21
59.634000
0
LINE
8
Layer 1
10
13.260600
20
46.064800
11
13.019786
21
44.851727
0
LINE
8
Layer 1
10
13.019786
20
44.851727
11
12.363048
21
43.861135
0
LINE
8
Layer 1
10
12.363048
20
43.861135
11
11.388943
21
43.193268
0
LINE
8
Layer 1
10
11.388943
20
43.193268
11
10.196030
21
42.948370
0
LINE
8
Layer 1
10
10.196030
20
42.948370
11
9.003265
21
43.193268
0
LINE
8
Layer 1
10
9.003265
20
43.193268
11
8.029144
21
43.861135
0
LINE
8
Layer 1
10
8.029144
20
43.861135
11
7.372324
21
44.851727
0
LINE
8
Layer 1
10
7.372324
20
44.851727
11
7.131460
21
46.064800
0
LINE
8
Layer 1
10
7.131460
20
46.064800
11
7.372324
21
47.277873
0
LINE
8
Layer 1
10
7.372324
20
47.277873
11
8.029144
21
48.268465
0
LINE
8
Layer 1
10
8.029144
20
48.268465
11
9.003265
21
48.936332
0
LINE
8
Layer 1
10
9.003265
20
48.936332
11
10.196030
21
49.181230
0
LINE
8
Layer 1
10
10.196030
20
49.181230
11
11.388943
21
48.936332
0
LINE
8
Layer 1
10
11.388943
20
48.936332
11
12.363048
21
48.268465
0
LINE
8
Layer 1
10
12.363048
20
48.268465
11
13.019786
21
47.277873
0
LINE
8
Layer 1
10
13.019786
20
47.277873
11
13.260600
21
46.064800
0
LINE
8
Layer 1
10
13.260600
20
46.064800
11
13.260600
21
46.064800
0
LINE
8
Layer 1
10
13.260600
20
75.880800
11
13.019786
21
74.667727
0
LINE
8
Layer 1
10
13.019786
20
74.667727
11
12.363048
21
73.677135
0
LINE
8
Layer 1
10
12.363048
20
73.677135
11
11.388943
21
73.009268
0
LINE
8
Layer 1
10
11.388943
20
73.009268
11
10.196030
21
72.764370
0
LINE
8
Layer 1
10
10.196030
20
72.764370
11
9.003265
21
73.009268
0
LINE
8
Layer 1
10
9.003265
20
73.009268
11
8.029144
21
73.677135
0
LINE
8
Layer 1
10
8.029144
20
73.677135
11
7.372324
21
74.667727
0
LINE
8
Layer 1
10
7.372324
20
74.667727
11
7.131460
21
75.880800
0
LINE
8
Layer 1
10
7.131460
20
75.880800
11
7.372324
21
77.093671
0
LINE
8
Layer 1
10
7.372324
20
77.093671
11
8.029144
21
78.084159
0
LINE
8
Layer 1
10
8.029144
20
78.084159
11
9.003265
21
78.751987
0
LINE
8
Layer 1
10
9.003265
20
78.751987
11
10.196030
21
78.996880
0
LINE
8
Layer 1
10
10.196030
20
78.996880
11
11.388943
21
78.751987
0
LINE
8
Layer 1
10
11.388943
20
78.751987
11
12.363048
21
78.084159
0
LINE
8
Layer 1
10
12.363048
20
78.084159
11
13.019786
21
77.093671
0
LINE
8
Layer 1
10
13.019786
20
77.093671
11
13.260600
21
75.880800
0
LINE
8
Layer 1
10
13.260600
20
75.880800
11
13.260600
21
75.880800
0
LINE
8
Layer 1
10
13.260600
20
89.623200
11
13.019786
21
88.410127
0
LINE
8
Layer 1
10
13.019786
20
88.410127
11
12.363048
21
87.419535
0
LINE
8
Layer 1
10
12.363048
20
87.419535
11
11.388943
21
86.751668
0
LINE
8
Layer 1
10
11.388943
20
86.751668
11
10.196030
21
86.506770
0
LINE
8
Layer 1
10
10.196030
20
86.506770
11
9.003265
21
86.751668
0
LINE
8
Layer 1
10
9.003265
20
86.751668
11
8.029144
21
87.419535
0
LINE
8
Layer 1
10
8.029144
20
87.419535
11
7.372324
21
88.410127
0
LINE
8
Layer 1
10
7.372324
20
88.410127
11
7.131460
21
89.623200
0
LINE
8
Layer 1
10
7.131460
20
89.623200
11
7.372324
21
90.836071
0
LINE
8
Layer 1
10
7.372324
20
90.836071
11
8.029144
21
91.826559
0
LINE
8
Layer 1
10
8.029144
20
91.826559
11
9.003265
21
92.494387
0
LINE
8
Layer 1
10
9.003265
20
92.494387
11
10.196030
21
92.739280
0
LINE
8
Layer 1
10
10.196030
20
92.739280
11
11.388943
21
92.494387
0
LINE
8
Layer 1
10
11.388943
20
92.494387
11
12.363048
21
91.826559
0
LINE
8
Layer 1
10
12.363048
20
91.826559
11
13.019786
21
90.836071
0
LINE
8
Layer 1
10
13.019786
20
90.836071
11
13.260600
21
89.623200
0
LINE
8
Layer 1
10
13.260600
20
89.623200
11
13.260600
21
89.623200
0
LINE
8
Layer 1
10
13.260600
20
116.797600
11
13.019786
21
115.584729
0
LINE
8
Layer 1
10
13.019786
20
115.584729
11
12.363048
21
114.594241
0
LINE
8
Layer 1
10
12.363048
20
114.594241
11
11.388943
21
113.926413
0
LINE
8
Layer 1
10
11.388943
20
113.926413
11
10.196030
21
113.681520
0
LINE
8
Layer 1
10
10.196030
20
113.681520
11
9.003265
21
113.926413
0
LINE
8
Layer 1
10
9.003265
20
113.926413
11
8.029144
21
114.594241
0
LINE
8
Layer 1
10
8.029144
20
114.594241
11
7.372324
21
115.584729
0
LINE
8
Layer 1
10
7.372324
20
115.584729
11
7.131460
21
116.797600
0
LINE
8
Layer 1
10
7.131460
20
116.797600
11
7.372324
21
118.010673
0
LINE
8
Layer 1
10
7.372324
20
118.010673
11
8.029144
21
119.001265
0
LINE
8
Layer 1
10
8.029144
20
119.001265
11
9.003265
21
119.669132
0
LINE
8
Layer 1
10
9.003265
20
119.669132
11
10.196030
21
119.914030
0
LINE
8
Layer 1
10
10.196030
20
119.914030
11
11.388943
21
119.669132
0
LINE
8
Layer 1
10
11.388943
20
119.669132
11
12.363048
21
119.001265
0
LINE
8
Layer 1
10
12.363048
20
119.001265
11
13.019786
21
118.010673
0
LINE
8
Layer 1
10
13.019786
20
118.010673
11
13.260600
21
116.797600
0
LINE
8
Layer 1
10
13.260600
20
116.797600
11
13.260600
21
116.797600
0
LINE
8
Layer 1
10
13.260600
20
103.119400
11
13.019786
21
101.906327
0
LINE
8
Layer 1
10
13.019786
20
101.906327
11
12.363048
21
100.915735
0
LINE
8
Layer 1
10
12.363048
20
100.915735
11
11.388943
21
100.247868
0
LINE
8
Layer 1
10
11.388943
20
100.247868
11
10.196030
21
100.002970
0
LINE
8
Layer 1
10
10.196030
20
100.002970
11
9.003265
21
100.247868
0
LINE
8
Layer 1
10
9.003265
20
100.247868
11
8.029144
21
100.915735
0
LINE
8
Layer 1
10
8.029144
20
100.915735
11
7.372324
21
101.906327
0
LINE
8
Layer 1
10
7.372324
20
101.906327
11
7.131460
21
103.119400
0
LINE
8
Layer 1
10
7.131460
20
103.119400
11
7.372324
21
104.332271
0
LINE
8
Layer 1
10
7.372324
20
104.332271
11
8.029144
21
105.322759
0
LINE
8
Layer 1
10
8.029144
20
105.322759
11
9.003265
21
105.990587
0
LINE
8
Layer 1
10
9.003265
20
105.990587
11
10.196030
21
106.235480
0
LINE
8
Layer 1
10
10.196030
20
106.235480
11
11.388943
21
105.990587
0
LINE
8
Layer 1
10
11.388943
20
105.990587
11
12.363048
21
105.322759
0
LINE
8
Layer 1
10
12.363048
20
105.322759
11
13.019786
21
104.332271
0
LINE
8
Layer 1
10
13.019786
20
104.332271
11
13.260600
21
103.119400
0
LINE
8
Layer 1
10
13.260600
20
103.119400
11
13.260600
21
103.119400
0
LINE
8
Layer 1
10
13.260600
20
18.664200
11
13.019786
21
17.451329
0
LINE
8
Layer 1
10
13.019786
20
17.451329
11
12.363048
21
16.460841
0
LINE
8
Layer 1
10
12.363048
20
16.460841
11
11.388943
21
15.793013
0
LINE
8
Layer 1
10
11.388943
20
15.793013
11
10.196030
21
15.548120
0
LINE
8
Layer 1
10
10.196030
20
15.548120
11
9.003265
21
15.793013
0
LINE
8
Layer 1
10
9.003265
20
15.793013
11
8.029144
21
16.460841
0
LINE
8
Layer 1
10
8.029144
20
16.460841
11
7.372324
21
17.451329
0
LINE
8
Layer 1
10
7.372324
20
17.451329
11
7.131460
21
18.664200
0
LINE
8
Layer 1
10
7.131460
20
18.664200
11
7.372324
21
19.877273
0
LINE
8
Layer 1
10
7.372324
20
19.877273
11
8.029144
21
20.867865
0
LINE
8
Layer 1
10
8.029144
20
20.867865
11
9.003265
21
21.535732
0
LINE
8
Layer 1
10
9.003265
20
21.535732
11
10.196030
21
21.780630
0
LINE
8
Layer 1
10
10.196030
20
21.780630
11
11.388943
21
21.535732
0
LINE
8
Layer 1
10
11.388943
20
21.535732
11
12.363048
21
20.867865
0
LINE
8
Layer 1
10
12.363048
20
20.867865
11
13.019786
21
19.877273
0
LINE
8
Layer 1
10
13.019786
20
19.877273
11
13.260600
21
18.664200
0
LINE
8
Layer 1
10
13.260600
20
18.664200
11
13.260600
21
18.664200
0
LINE
8
Layer 1
10
13.260600
20
32.641600
11
13.019786
21
31.428729
0
LINE
8
Layer 1
10
13.019786
20
31.428729
11
12.363048
21
30.438241
0
LINE
8
Layer 1
10
12.363048
20
30.438241
11
11.388943
21
29.770413
0
LINE
8
Layer 1
10
11.388943
20
29.770413
11
10.196030
21
29.525520
0
LINE
8
Layer 1
10
10.196030
20
29.525520
11
9.003265
21
29.770413
0
LINE
8
Layer 1
10
9.003265
20
29.770413
11
8.029144
21
30.438241
0
LINE
8
Layer 1
10
8.029144
20
30.438241
11
7.372324
21
31.428729
0
LINE
8
Layer 1
10
7.372324
20
31.428729
11
7.131460
21
32.641600
0
LINE
8
Layer 1
10
7.131460
20
32.641600
11
7.372324
21
33.854673
0
LINE
8
Layer 1
10
7.372324
20
33.854673
11
8.029144
21
34.845265
0
LINE
8
Layer 1
10
8.029144
20
34.845265
11
9.003265
21
35.513132
0
LINE
8
Layer 1
10
9.003265
20
35.513132
11
10.196030
21
35.758030
0
LINE
8
Layer 1
10
10.196030
20
35.758030
11
11.388943
21
35.513132
0
LINE
8
Layer 1
10
11.388943
20
35.513132
11
12.363048
21
34.845265
0
LINE
8
Layer 1
10
12.363048
20
34.845265
11
13.019786
21
33.854673
0
LINE
8
Layer 1
10
13.019786
20
33.854673
11
13.260600
21
32.641600
0
LINE
8
Layer 1
10
13.260600
20
32.641600
11
13.260600
21
32.641600
0
LINE
8
Layer 1
10
13.260600
20
46.064800
11
13.019786
21
44.851727
0
LINE
8
Layer 1
10
13.019786
20
44.851727
11
12.363048
21
43.861135
0
LINE
8
Layer 1
10
12.363048
20
43.861135
11
11.388943
21
43.193268
0
LINE
8
Layer 1
10
11.388943
20
43.193268
11
10.196030
21
42.948370
0
LINE
8
Layer 1
10
10.196030
20
42.948370
11
9.003265
21
43.193268
0
LINE
8
Layer 1
10
9.003265
20
43.193268
11
8.029144
21
43.861135
0
LINE
8
Layer 1
10
8.029144
20
43.861135
11
7.372324
21
44.851727
0
LINE
8
Layer 1
10
7.372324
20
44.851727
11
7.131460
21
46.064800
0
LINE
8
Layer 1
10
7.131460
20
46.064800
11
7.372324
21
47.277873
0
LINE
8
Layer 1
10
7.372324
20
47.277873
11
8.029144
21
48.268465
0
LINE
8
Layer 1
10
8.029144
20
48.268465
11
9.003265
21
48.936332
0
LINE
8
Layer 1
10
9.003265
20
48.936332
11
10.196030
21
49.181230
0
LINE
8
Layer 1
10
10.196030
20
49.181230
11
11.388943
21
48.936332
0
LINE
8
Layer 1
10
11.388943
20
48.936332
11
12.363048
21
48.268465
0
LINE
8
Layer 1
10
12.363048
20
48.268465
11
13.019786
21
47.277873
0
LINE
8
Layer 1
10
13.019786
20
47.277873
11
13.260600
21
46.064800
0
LINE
8
Layer 1
10
13.260600
20
46.064800
11
13.260600
21
46.064800
0
LINE
8
Layer 1
10
13.260600
20
75.880800
11
13.019786
21
74.667727
0
LINE
8
Layer 1
10
13.019786
20
74.667727
11
12.363048
21
73.677135
0
LINE
8
Layer 1
10
12.363048
20
73.677135
11
11.388943
21
73.009268
0
LINE
8
Layer 1
10
11.388943
20
73.009268
11
10.196030
21
72.764370
0
LINE
8
Layer 1
10
10.196030
20
72.764370
11
9.003265
21
73.009268
0
LINE
8
Layer 1
10
9.003265
20
73.009268
11
8.029144
21
73.677135
0
LINE
8
Layer 1
10
8.029144
20
73.677135
11
7.372324
21
74.667727
0
LINE
8
Layer 1
10
7.372324
20
74.667727
11
7.131460
21
75.880800
0
LINE
8
Layer 1
10
7.131460
20
75.880800
11
7.372324
21
77.093671
0
LINE
8
Layer 1
10
7.372324
20
77.093671
11
8.029144
21
78.084159
0
LINE
8
Layer 1
10
8.029144
20
78.084159
11
9.003265
21
78.751987
0
LINE
8
Layer 1
10
9.003265
20
78.751987
11
10.196030
21
78.996880
0
LINE
8
Layer 1
10
10.196030
20
78.996880
11
11.388943
21
78.751987
0
LINE
8
Layer 1
10
11.388943
20
78.751987
11
12.363048
21
78.084159
0
LINE
8
Layer 1
10
12.363048
20
78.084159
11
13.019786
21
77.093671
0
LINE
8
Layer 1
10
13.019786
20
77.093671
11
13.260600
21
75.880800
0
LINE
8
Layer 1
10
13.260600
20
75.880800
11
13.260600
21
75.880800
0
LINE
8
Layer 1
10
13.260600
20
89.623200
11
13.019786
21
88.410127
0
LINE
8
Layer 1
10
13.019786
20
88.410127
11
12.363048
21
87.419535
0
LINE
8
Layer 1
10
12.363048
20
87.419535
11
11.388943
21
86.751668
0
LINE
8
Layer 1
10
11.388943
20
86.751668
11
10.196030
21
86.506770
0
LINE
8
Layer 1
10
10.196030
20
86.506770
11
9.003265
21
86.751668
0
LINE
8
Layer 1
10
9.003265
20
86.751668
11
8.029144
21
87.419535
0
LINE
8
Layer 1
10
8.029144
20
87.419535
11
7.372324
21
88.410127
0
LINE
8
Layer 1
10
7.372324
20
88.410127
11
7.131460
21
89.623200
0
LINE
8
Layer 1
10
7.131460
20
89.623200
11
7.372324
21
90.836071
0
LINE
8
Layer 1
10
7.372324
20
90.836071
11
8.029144
21
91.826559
0
LINE
8
Layer 1
10
8.029144
20
91.826559
11
9.003265
21
92.494387
0
LINE
8
Layer 1
10
9.003265
20
92.494387
11
10.196030
21
92.739280
0
LINE
8
Layer 1
10
10.196030
20
92.739280
11
11.388943
21
92.494387
0
LINE
8
Layer 1
10
11.388943
20
92.494387
11
12.363048
21
91.826559
0
LINE
8
Layer 1
10
12.363048
20
91.826559
11
13.019786
21
90.836071
0
LINE
8
Layer 1
10
13.019786
20
90.836071
11
13.260600
21
89.623200
0
LINE
8
Layer 1
10
13.260600
20
89.623200
11
13.260600
21
89.623200
0
LINE
8
Layer 1
10
13.260600
20
103.119400
11
13.019786
21
101.906327
0
LINE
8
Layer 1
10
13.019786
20
101.906327
11
12.363048
21
100.915735
0
LINE
8
Layer 1
10
12.363048
20
100.915735
11
11.388943
21
100.247868
0
LINE
8
Layer 1
10
11.388943
20
100.247868
11
10.196030
21
100.002970
0
LINE
8
Layer 1
10
10.196030
20
100.002970
11
9.003265
21
100.247868
0
LINE
8
Layer 1
10
9.003265
20
100.247868
11
8.029144
21
100.915735
0
LINE
8
Layer 1
10
8.029144
20
100.915735
11
7.372324
21
101.906327
0
LINE
8
Layer 1
10
7.372324
20
101.906327
11
7.131460
21
103.119400
0
LINE
8
Layer 1
10
7.131460
20
103.119400
11
7.372324
21
104.332271
0
LINE
8
Layer 1
10
7.372324
20
104.332271
11
8.029144
21
105.322759
0
LINE
8
Layer 1
10
8.029144
20
105.322759
11
9.003265
21
105.990587
0
LINE
8
Layer 1
10
9.003265
20
105.990587
11
10.196030
21
106.235480
0
LINE
8
Layer 1
10
10.196030
20
106.235480
11
11.388943
21
105.990587
0
LINE
8
Layer 1
10
11.388943
20
105.990587
11
12.363048
21
105.322759
0
LINE
8
Layer 1
10
12.363048
20
105.322759
11
13.019786
21
104.332271
0
LINE
8
Layer 1
10
13.019786
20
104.332271
11
13.260600
21
103.119400
0
LINE
8
Layer 1
10
13.260600
20
103.119400
11
13.260600
21
103.119400
0
LINE
8
Layer 1
10
5.176680
20
3.611910
11
15.299300
21
3.611910
0
LINE
8
Layer 1
10
15.299300
20
3.611910
11
15.299300
21
132.101000
0
LINE
8
Layer 1
10
15.299300
20
132.101000
11
5.176680
21
132.101000
0
LINE
8
Layer 1
10
5.176680
20
132.101000
11
5.176680
21
3.611910
0
LINE
8
Layer 1
10
4.176810
20
133.100000
11
5.176580
21
133.100000
0
LINE
8
Layer 1
10
5.176580
20
133.100000
11
5.176580
21
132.101000
0
LINE
8
Layer 1
10
5.176580
20
132.101000
11
4.176810
21
132.101000
0
LINE
8
Layer 1
10
4.176810
20
132.101000
11
4.176810
21
133.100000
 0 
ENDSEC
 0 
EOF